<?xml version="1.0" encoding="UTF-8"?>
<svg id="Layer_2" data-name="Layer 2" xmlns="http://www.w3.org/2000/svg" viewBox="0 0 88.67 147.38">
  <defs>
    <style>
      .cls-1 {
        fill: #383838;
      }
    </style>
  </defs>
  <g id="STROKE_12_PX_EXPAND" data-name="STROKE 12 PX EXPAND">
    <g id="degrees_Fahrenheit" data-name="degrees Fahrenheit">
      <g>
        <path class="cls-1" d="m3,147.38C1.34,147.38,0,146.03,0,144.38V59.38C0,49.45,8.08,41.38,18,41.38h36.93c1.66,0,3,1.34,3,3s-1.34,3-3,3H18c-6.62,0-12,5.38-12,12v85c0,1.66-1.34,3-3,3Z"/>
        <path class="cls-1" d="m32.2,97.38H3c-1.66,0-3-1.34-3-3s1.34-3,3-3h29.2c1.66,0,3,1.34,3,3s-1.34,3-3,3Z"/>
      </g>
      <path class="cls-1" d="m73.67,30c-8.27,0-15-6.73-15-15S65.39,0,73.67,0s15,6.73,15,15-6.73,15-15,15Zm0-24c-4.96,0-9,4.04-9,9s4.04,9,9,9,9-4.04,9-9-4.04-9-9-9Z"/>
    </g>
  </g>
</svg>