<?xml version="1.0" encoding="UTF-8"?>
<svg id="Layer_2" data-name="Layer 2" xmlns="http://www.w3.org/2000/svg" viewBox="0 0 143.86 136">
  <defs>
    <style>
      .cls-1 {
        fill: #383838;
      }
    </style>
  </defs>
  <g id="STROKE_12_PX_EXPAND" data-name="STROKE 12 PX EXPAND">
    <g id="drops">
      <g id="drop">
        <path class="cls-1" d="m19.78,50.2C8.87,50.2,0,41.33,0,30.42c0-3.92,1.01-7.48,3.18-11.22,2.04-3.51,4.81-6.69,7.74-10.06,2.17-2.49,4.41-5.07,6.41-7.89C17.9.47,18.81,0,19.78,0s1.88.47,2.44,1.26c2.01,2.82,4.25,5.39,6.41,7.88,2.93,3.37,5.7,6.55,7.74,10.06,2.17,3.74,3.18,7.3,3.18,11.22,0,10.9-8.87,19.78-19.78,19.78Zm0-42.24c-1.43,1.79-2.9,3.47-4.33,5.12-2.74,3.15-5.33,6.13-7.08,9.14-1.62,2.78-2.37,5.39-2.37,8.21,0,7.6,6.18,13.78,13.78,13.78s13.78-6.18,13.78-13.78c0-2.82-.75-5.42-2.37-8.21-1.75-3.01-4.34-5.99-7.07-9.13-1.43-1.65-2.9-3.33-4.33-5.12Z"/>
      </g>
      <g>
        <path class="cls-1" d="m111.25,84c-1.88,0-3.78-.17-5.64-.51-1.63-.3-2.71-1.86-2.42-3.49.3-1.63,1.86-2.7,3.49-2.42,1.5.27,3.04.41,4.56.41,14.67,0,26.61-11.94,26.61-26.61,0-5.39-1.43-10.35-4.49-15.63-3.21-5.51-7.84-10.83-12.74-16.47-2.97-3.41-6.25-7.19-9.38-11.26-3.22,4.19-6.57,8.04-9.38,11.26-4.9,5.63-9.53,10.95-12.73,16.47-2.09,3.58-3.41,7-4.04,10.47-.3,1.63-1.85,2.71-3.49,2.41-1.63-.3-2.71-1.86-2.41-3.49.76-4.17,2.32-8.23,4.76-12.41,3.48-6,8.29-11.53,13.39-17.39,3.45-3.95,7.73-8.87,11.46-14.1.56-.79,1.47-1.26,2.44-1.26s1.88.47,2.44,1.26c3.64,5.1,7.62,9.67,11.46,14.1,5.09,5.85,9.9,11.39,13.4,17.39,3.62,6.24,5.31,12.16,5.31,18.65,0,17.98-14.63,32.61-32.61,32.61Z"/>
        <path class="cls-1" d="m115.55,71.56c-1.34,0-2.57-.91-2.91-2.27-.4-1.61.58-3.24,2.18-3.64,5.23-1.31,9.32-5.37,10.66-10.59.41-1.6,2.06-2.57,3.65-2.16,1.6.41,2.57,2.05,2.16,3.65-1.89,7.36-7.65,13.07-15.02,14.92-.24.06-.49.09-.73.09Z"/>
      </g>
      <g id="drop-2" data-name="drop">
        <g id="drop-3" data-name="drop">
          <path class="cls-1" d="m68.73,136c-23.42,0-42.47-19.05-42.47-42.47,0-8.48,2.2-16.22,6.94-24.36,4.6-7.91,10.99-15.26,17.75-23.04,5.17-5.94,10.5-12.07,15.34-18.87.56-.79,1.47-1.26,2.44-1.26.97,0,1.88.47,2.44,1.26,4.85,6.8,10.18,12.93,15.34,18.87,6.76,7.77,13.15,15.12,17.75,23.04,4.74,8.15,6.94,15.89,6.94,24.37,0,23.42-19.05,42.47-42.47,42.47Zm0-101.93c-4.3,5.7-8.84,10.91-13.24,15.98-6.58,7.57-12.79,14.71-17.1,22.13-4.18,7.19-6.13,13.98-6.13,21.35,0,20.11,16.36,36.47,36.47,36.47s36.47-16.36,36.47-36.47c0-7.37-1.95-14.16-6.13-21.35-4.32-7.42-10.52-14.56-17.09-22.11-4.41-5.07-8.95-10.29-13.25-15.99Z"/>
        </g>
        <path class="cls-1" d="m68.73,124.08c-1.66,0-3-1.34-3-3s1.34-3,3-3c13.54,0,24.56-11.02,24.56-24.56,0-1.66,1.34-3,3-3s3,1.34,3,3c0,16.85-13.71,30.56-30.56,30.56Z"/>
      </g>
    </g>
  </g>
</svg>