<?xml version="1.0" encoding="UTF-8"?>
<svg id="Layer_2" data-name="Layer 2" xmlns="http://www.w3.org/2000/svg" viewBox="0 0 168.59 155.37">
  <defs>
    <style>
      .cls-1 {
        fill: #383838;
      }
    </style>
  </defs>
  <g id="STROKE_12_PX_EXPAND" data-name="STROKE 12 PX EXPAND">
    <g id="pressure">
      <g>
        <g>
          <path class="cls-1" d="m113.72,48.83c-.64,0-1.28-.2-1.82-.62-6.29-4.82-13.76-7.91-21.6-8.95-1.49-.2-2.61-1.47-2.61-2.97v-20.19c0-.84.36-1.65.98-2.22.62-.57,1.47-.85,2.3-.77,14.37,1.33,27.84,6.91,38.95,16.13.65.54,1.04,1.33,1.08,2.17.04.84-.28,1.66-.88,2.26l-14.28,14.28c-.58.58-1.35.88-2.12.88Zm-20.03-15.1c7.06,1.31,13.8,4.1,19.72,8.17l10.08-10.08c-8.77-6.57-18.96-10.79-29.8-12.34v14.26Z"/>
          <path class="cls-1" d="m36.29,80.9h-20.19c-.84,0-1.65-.36-2.22-.98-.57-.62-.85-1.46-.77-2.3,1.33-14.37,6.91-27.83,16.13-38.95.54-.65,1.33-1.04,2.17-1.08.85-.03,1.66.28,2.26.88l14.28,14.28c1.06,1.06,1.17,2.75.26,3.95-4.82,6.29-7.91,13.76-8.95,21.6-.2,1.49-1.47,2.61-2.97,2.61Zm-16.82-6h14.26c1.31-7.06,4.09-13.79,8.17-19.72l-10.08-10.08c-6.57,8.77-10.79,18.96-12.34,29.8Z"/>
          <path class="cls-1" d="m31.55,131s-.09,0-.14,0c-.84-.04-1.63-.43-2.17-1.08-9.22-11.12-14.8-24.58-16.13-38.95-.08-.84.2-1.67.77-2.3.57-.62,1.37-.98,2.22-.98h20.19c1.5,0,2.78,1.12,2.97,2.61.52,3.92,1.54,7.75,3.05,11.39,1.51,3.64,3.49,7.08,5.89,10.21.92,1.19.8,2.88-.26,3.95l-14.28,14.28c-.56.56-1.33.88-2.12.88Zm-12.08-37.31c1.55,10.84,5.77,21.03,12.34,29.8l10.08-10.08c-2.03-2.96-3.75-6.12-5.12-9.43-1.37-3.31-2.39-6.76-3.04-10.29h-14.26Z"/>
          <path class="cls-1" d="m137.04,131c-.79,0-1.56-.32-2.12-.88l-14.28-14.28c-1.06-1.06-1.17-2.75-.26-3.95,4.82-6.29,7.91-13.76,8.95-21.6.2-1.49,1.47-2.61,2.97-2.61h20.19c.84,0,1.65.36,2.22.98.57.62.85,1.46.77,2.3-1.33,14.37-6.91,27.84-16.13,38.95-.54.65-1.33,1.04-2.17,1.08-.05,0-.09,0-.14,0Zm-10.35-17.59l10.08,10.08c6.57-8.77,10.79-18.96,12.34-29.81h-14.26c-1.31,7.06-4.09,13.8-8.17,19.72Z"/>
          <path class="cls-1" d="m54.87,48.83c-.77,0-1.54-.3-2.12-.88l-14.28-14.28c-.6-.6-.91-1.42-.88-2.26.04-.84.43-1.63,1.08-2.17,11.12-9.22,24.58-14.8,38.95-16.13.84-.08,1.67.2,2.3.77.62.57.98,1.37.98,2.22v20.19c0,1.5-1.12,2.78-2.61,2.97-7.84,1.04-15.31,4.13-21.6,8.95-.54.42-1.18.62-1.82.62Zm-9.77-17.01l10.08,10.08c5.92-4.07,12.66-6.86,19.72-8.17v-14.26c-10.84,1.55-21.03,5.77-29.8,12.34Z"/>
          <path class="cls-1" d="m152.49,80.9h-20.19c-1.5,0-2.78-1.12-2.97-2.61-1.04-7.84-4.13-15.31-8.95-21.6-.91-1.19-.8-2.88.26-3.95l14.28-14.28c.6-.6,1.44-.9,2.26-.88.84.04,1.63.43,2.17,1.08,9.22,11.12,14.8,24.59,16.13,38.95.08.84-.2,1.67-.77,2.3-.57.62-1.37.98-2.22.98Zm-17.63-6h14.26c-1.55-10.84-5.77-21.03-12.34-29.8l-10.08,10.08c4.07,5.93,6.86,12.66,8.17,19.72Z"/>
        </g>
        <path class="cls-1" d="m84.29,98.51c-7.84,0-14.22-6.38-14.22-14.21s6.38-14.22,14.22-14.22,14.21,6.38,14.21,14.22-6.38,14.21-14.21,14.21Zm0-22.43c-4.53,0-8.22,3.69-8.22,8.22s3.69,8.21,8.22,8.21,8.21-3.69,8.21-8.21-3.69-8.22-8.21-8.22Z"/>
        <path class="cls-1" d="m73.93,83c-.38,0-.77-.07-1.15-.23l-23.98-9.93c-1.53-.63-2.26-2.39-1.62-3.92.63-1.53,2.39-2.26,3.92-1.62l23.98,9.93c1.53.63,2.26,2.39,1.62,3.92-.48,1.16-1.6,1.85-2.77,1.85Z"/>
        <path class="cls-1" d="m15.74,131c-.99,0-1.96-.49-2.53-1.39C4.57,116.09,0,100.42,0,84.29,0,37.81,37.81,0,84.29,0s84.29,37.81,84.29,84.29c0,16.12-4.57,31.8-13.21,45.32-.89,1.4-2.75,1.81-4.14.91-1.4-.89-1.8-2.75-.91-4.14,8.02-12.56,12.27-27.11,12.27-42.09,0-43.17-35.12-78.29-78.29-78.29S6,41.12,6,84.29c0,14.98,4.24,29.53,12.27,42.09.89,1.4.48,3.25-.91,4.14-.5.32-1.06.47-1.61.47Z"/>
      </g>
      <path class="cls-1" d="m50.24,155.37h-12.64c-1.66,0-3-1.34-3-3s1.34-3,3-3h12.64c1.66,0,3,1.34,3,3s-1.34,3-3,3Z"/>
      <path class="cls-1" d="m130.99,155.37H62.74c-1.66,0-3-1.34-3-3s1.34-3,3-3h68.25c1.66,0,3,1.34,3,3s-1.34,3-3,3Z"/>
      <path class="cls-1" d="m106.57,142.87h-44.56c-1.66,0-3-1.34-3-3s1.34-3,3-3h44.56c1.66,0,3,1.34,3,3s-1.34,3-3,3Z"/>
    </g>
  </g>
</svg>