<?xml version="1.0" encoding="UTF-8"?>
<svg id="Layer_2" data-name="Layer 2" xmlns="http://www.w3.org/2000/svg" viewBox="0 0 238.82 156">
  <defs>
    <style>
      .cls-1 {
        fill: #383838;
      }
    </style>
  </defs>
  <g id="STROKE_12_PX_EXPAND" data-name="STROKE 12 PX EXPAND">
    <g id="rainbow">
      <g id="sun">
        <g>
          <path class="cls-1" d="m186.06,16.26c-1.66,0-3-1.34-3-3V3c0-1.66,1.34-3,3-3s3,1.34,3,3v10.26c0,1.66-1.34,3-3,3Z"/>
          <path class="cls-1" d="m186.06,105.51c-1.66,0-3-1.34-3-3v-10.25c0-1.66,1.34-3,3-3s3,1.34,3,3v10.25c0,1.66-1.34,3-3,3Z"/>
          <path class="cls-1" d="m166.32,21.54c-1.04,0-2.04-.54-2.6-1.5l-5.12-8.87c-.83-1.43-.34-3.27,1.1-4.1,1.43-.83,3.27-.34,4.1,1.1l5.12,8.87c.83,1.43.34,3.27-1.1,4.1-.47.27-.99.4-1.5.4Z"/>
          <path class="cls-1" d="m210.95,98.85c-1.04,0-2.04-.54-2.6-1.5l-5.13-8.89c-.83-1.44-.34-3.27,1.1-4.1,1.44-.83,3.27-.34,4.1,1.1l5.13,8.89c.83,1.44.34,3.27-1.1,4.1-.47.27-.99.4-1.5.4Z"/>
          <path class="cls-1" d="m151.84,36c-.51,0-1.03-.13-1.5-.4l-8.87-5.12c-1.44-.83-1.93-2.66-1.1-4.1.83-1.43,2.67-1.92,4.1-1.1l8.87,5.12c1.44.83,1.93,2.66,1.1,4.1-.56.96-1.56,1.5-2.6,1.5Z"/>
          <path class="cls-1" d="m229.15,80.64c-.51,0-1.03-.13-1.5-.4l-8.88-5.14c-1.43-.83-1.92-2.67-1.09-4.1.83-1.44,2.67-1.92,4.1-1.09l8.88,5.14c1.43.83,1.92,2.67,1.09,4.1-.56.96-1.56,1.5-2.6,1.5Z"/>
          <path class="cls-1" d="m146.56,55.76h-10.25c-1.66,0-3-1.34-3-3s1.34-3,3-3h10.25c1.66,0,3,1.34,3,3s-1.34,3-3,3Z"/>
          <path class="cls-1" d="m235.82,55.76h-10.26c-1.66,0-3-1.34-3-3s1.34-3,3-3h10.26c1.66,0,3,1.34,3,3s-1.34,3-3,3Z"/>
          <path class="cls-1" d="m220.28,36.01c-1.04,0-2.04-.54-2.6-1.5-.83-1.43-.34-3.27,1.1-4.1l8.88-5.13c1.44-.83,3.27-.34,4.1,1.1.83,1.43.34,3.27-1.1,4.1l-8.88,5.13c-.47.27-.99.4-1.5.4Z"/>
          <path class="cls-1" d="m205.82,21.55c-.51,0-1.02-.13-1.5-.4-1.44-.83-1.93-2.66-1.1-4.1l5.12-8.88c.83-1.44,2.67-1.93,4.1-1.1,1.44.83,1.93,2.66,1.1,4.1l-5.12,8.88c-.56.96-1.56,1.5-2.6,1.5Z"/>
        </g>
        <path class="cls-1" d="m186.07,82.76c-16.54,0-30-13.46-30-30s13.46-30,30-30,30,13.46,30,30-13.46,30-30,30Zm0-54c-13.23,0-24,10.77-24,24s10.77,24,24,24,24-10.77,24-24-10.77-24-24-24Z"/>
      </g>
      <g>
        <g>
          <path class="cls-1" d="m123.33,156c-1.66,0-3-1.34-3-3,0-13.94-11.34-25.27-25.27-25.27s-25.27,11.34-25.27,25.27c0,1.66-1.34,3-3,3s-3-1.34-3-3c0-17.24,14.03-31.27,31.27-31.27s31.27,14.03,31.27,31.27c0,1.66-1.34,3-3,3Z"/>
          <g>
            <path class="cls-1" d="m139.27,156c-1.66,0-3-1.34-3-3,0-.63-.01-1.25-.04-1.87-.07-1.66,1.21-3.06,2.87-3.13,1.66-.04,3.06,1.21,3.13,2.86.03.71.05,1.42.05,2.13,0,1.66-1.34,3-3,3Z"/>
            <path class="cls-1" d="m137.21,142.65c-1.27,0-2.45-.82-2.86-2.09-.36-1.14-.78-2.27-1.24-3.37-.64-1.53.08-3.29,1.61-3.93,1.53-.64,3.29.08,3.92,1.61.53,1.26,1.01,2.56,1.42,3.87.5,1.58-.37,3.27-1.95,3.77-.3.1-.61.14-.91.14Zm-84.31-.03c-.3,0-.61-.05-.91-.14-1.58-.5-2.45-2.19-1.95-3.77.41-1.3.89-2.6,1.42-3.86.64-1.53,2.4-2.25,3.93-1.61,1.53.64,2.25,2.4,1.61,3.93-.46,1.1-.88,2.23-1.24,3.37-.41,1.28-1.59,2.09-2.86,2.09Zm77.2-13.56c-.9,0-1.79-.4-2.38-1.17-.73-.95-1.51-1.87-2.31-2.75-1.12-1.22-1.04-3.12.18-4.24,1.22-1.12,3.12-1.04,4.24.18.92,1,1.82,2.06,2.65,3.15,1.01,1.31.77,3.2-.54,4.21-.55.42-1.19.62-1.83.62Zm-70.08-.02c-.64,0-1.29-.2-1.83-.63-1.31-1.01-1.55-2.9-.54-4.21.83-1.08,1.73-2.14,2.65-3.14,1.12-1.22,3.02-1.3,4.24-.18,1.22,1.12,1.3,3.02.18,4.24-.81.88-1.59,1.8-2.32,2.75-.59.77-1.48,1.17-2.38,1.17Zm58.76-10.34c-.55,0-1.11-.15-1.61-.47-1.01-.64-2.06-1.25-3.11-1.8-1.47-.77-2.04-2.58-1.27-4.05.77-1.47,2.58-2.04,4.05-1.27,1.21.63,2.4,1.32,3.56,2.06,1.4.89,1.81,2.75.92,4.14-.57.9-1.54,1.39-2.53,1.39Zm-47.44-.01c-.99,0-1.96-.49-2.53-1.39-.89-1.4-.48-3.25.92-4.14,1.15-.73,2.35-1.43,3.56-2.06,1.47-.76,3.28-.2,4.05,1.27.77,1.47.19,3.28-1.27,4.05-1.06.55-2.1,1.16-3.11,1.8-.5.32-1.06.47-1.61.47Zm33.28-5.86c-.21,0-.43-.02-.65-.07-1.16-.26-2.35-.47-3.54-.62-1.64-.21-2.8-1.72-2.59-3.36.21-1.64,1.72-2.79,3.36-2.59,1.36.18,2.72.42,4.06.71,1.62.36,2.64,1.96,2.28,3.58-.31,1.4-1.55,2.35-2.93,2.35Zm-19.12,0c-1.38,0-2.62-.95-2.93-2.36-.36-1.62.67-3.22,2.29-3.58,1.33-.29,2.7-.53,4.05-.71,1.66-.21,3.15.94,3.36,2.59.21,1.64-.95,3.15-2.59,3.36-1.18.15-2.37.36-3.54.62-.22.05-.43.07-.65.07Z"/>
            <path class="cls-1" d="m50.83,156c-1.66,0-3-1.34-3-3,0-.71.02-1.43.05-2.13.07-1.61,1.4-2.87,3-2.87.04,0,.09,0,.13,0,1.66.07,2.94,1.47,2.87,3.13-.03.62-.04,1.24-.04,1.87,0,1.66-1.34,3-3,3Z"/>
          </g>
          <path class="cls-1" d="m187.11,156c-1.66,0-3-1.34-3-3,0-49.1-39.95-89.05-89.05-89.05S6,103.9,6,153c0,1.66-1.34,3-3,3S0,154.66,0,153C0,100.59,42.64,57.95,95.05,57.95s95.05,42.64,95.05,95.05c0,1.66-1.34,3-3,3Z"/>
          <g>
            <path class="cls-1" d="m171.16,156c-1.66,0-3-1.34-3-3,0-.64,0-1.28-.02-1.92-.04-1.66,1.26-3.03,2.92-3.08.03,0,.05,0,.08,0,1.62,0,2.95,1.29,3,2.92.02.69.03,1.38.03,2.08,0,1.66-1.34,3-3,3Z"/>
            <path class="cls-1" d="m169.89,142.12c-1.42,0-2.68-1.01-2.95-2.45-.23-1.25-.5-2.51-.8-3.74-.39-1.61.6-3.23,2.21-3.62,1.61-.38,3.23.6,3.62,2.22.32,1.33.61,2.69.86,4.05.3,1.63-.77,3.19-2.4,3.5-.18.03-.37.05-.55.05Zm-149.67-.07c-.18,0-.37-.02-.55-.05-1.63-.3-2.7-1.87-2.4-3.5.25-1.36.55-2.72.87-4.05.39-1.61,2.01-2.6,3.62-2.21,1.61.39,2.6,2.01,2.21,3.62-.3,1.22-.56,2.48-.8,3.74-.27,1.44-1.53,2.45-2.95,2.45Zm145.15-15.18c-1.18,0-2.29-.7-2.77-1.85-.49-1.17-1.01-2.35-1.56-3.5-.72-1.49-.09-3.29,1.41-4,1.5-.71,3.29-.08,4,1.41.59,1.24,1.17,2.52,1.69,3.79.64,1.53-.09,3.29-1.62,3.92-.38.16-.77.23-1.15.23Zm-140.61-.06c-.38,0-.78-.07-1.15-.23-1.53-.64-2.25-2.39-1.62-3.92.53-1.26,1.1-2.53,1.69-3.77.72-1.49,2.51-2.12,4-1.4,1.49.72,2.12,2.51,1.4,4-.55,1.14-1.08,2.32-1.56,3.48-.48,1.15-1.6,1.85-2.77,1.85Zm133-13.91c-.95,0-1.89-.45-2.47-1.3-.72-1.04-1.48-2.08-2.25-3.09-1.01-1.31-.76-3.2.55-4.21,1.32-1.01,3.2-.76,4.21.55.84,1.09,1.66,2.22,2.44,3.35.94,1.36.6,3.23-.77,4.17-.52.36-1.11.53-1.7.53Zm-125.38-.04c-.59,0-1.18-.17-1.7-.53-1.36-.94-1.71-2.81-.76-4.17.78-1.12,1.6-2.25,2.44-3.34,1.01-1.31,2.9-1.56,4.21-.54,1.31,1.01,1.56,2.9.54,4.21-.78,1.01-1.54,2.05-2.25,3.09-.58.84-1.52,1.3-2.47,1.3Zm115.04-12.05c-.74,0-1.48-.27-2.07-.82-.92-.87-1.88-1.73-2.84-2.56-1.26-1.08-1.41-2.97-.33-4.23,1.08-1.26,2.97-1.41,4.23-.33,1.05.9,2.08,1.83,3.08,2.77,1.2,1.14,1.25,3.04.11,4.24-.59.62-1.38.93-2.18.93Zm-104.7-.03c-.79,0-1.59-.31-2.18-.94-1.14-1.2-1.09-3.1.12-4.24,1-.95,2.04-1.88,3.08-2.77,1.26-1.08,3.15-.93,4.23.33,1.08,1.26.93,3.15-.33,4.23-.96.82-1.92,1.68-2.85,2.56-.58.55-1.32.82-2.06.82Zm92.09-9.67c-.54,0-1.08-.14-1.57-.44-1.08-.66-2.19-1.31-3.31-1.92-1.45-.79-1.99-2.62-1.2-4.07.79-1.45,2.62-1.99,4.07-1.2,1.21.66,2.41,1.36,3.58,2.07,1.41.87,1.85,2.72.98,4.13-.57.92-1.55,1.43-2.56,1.43Zm-79.47-.02c-1.01,0-1.99-.51-2.56-1.43-.87-1.41-.42-3.26.99-4.13,1.18-.72,2.38-1.42,3.59-2.07,1.46-.79,3.28-.25,4.07,1.2.79,1.46.25,3.28-1.2,4.07-1.11.61-2.23,1.25-3.32,1.92-.49.3-1.03.44-1.57.44Zm65.14-6.84c-.33,0-.67-.06-1-.17-1.19-.42-2.41-.82-3.63-1.18-1.59-.47-2.49-2.14-2.02-3.73.47-1.59,2.14-2.49,3.73-2.02,1.32.39,2.64.82,3.93,1.28,1.56.56,2.38,2.27,1.82,3.83-.44,1.23-1.59,2-2.83,2Zm-50.78-.02c-1.24,0-2.39-.77-2.83-2-.55-1.56.26-3.28,1.83-3.83,1.3-.46,2.63-.89,3.95-1.28,1.59-.47,3.26.44,3.73,2.03.47,1.59-.44,3.26-2.03,3.73-1.22.36-2.45.76-3.65,1.18-.33.12-.67.17-1,.17Zm35.33-3.7c-.13,0-.26,0-.39-.03-1.25-.16-2.53-.3-3.81-.4-1.65-.13-2.88-1.57-2.75-3.23s1.59-2.87,3.23-2.75c1.38.11,2.76.25,4.12.43,1.64.22,2.8,1.72,2.58,3.37-.2,1.51-1.49,2.61-2.97,2.61Zm-19.87-.01c-1.49,0-2.78-1.1-2.97-2.61-.21-1.64.95-3.15,2.59-3.36,1.36-.18,2.75-.32,4.12-.43,1.69-.12,3.09,1.11,3.22,2.76.13,1.65-1.11,3.09-2.76,3.22-1.26.1-2.54.23-3.81.39-.13.02-.26.03-.39.03Z"/>
            <path class="cls-1" d="m18.94,156c-1.66,0-3-1.34-3-3,0-.69,0-1.39.03-2.08.04-1.66,1.47-2.94,3.08-2.92,1.66.04,2.96,1.42,2.92,3.08-.02.64-.03,1.28-.03,1.92,0,1.66-1.34,3-3,3Z"/>
          </g>
          <path class="cls-1" d="m155.22,156c-1.66,0-3-1.34-3-3,0-31.52-25.64-57.16-57.16-57.16s-57.16,25.64-57.16,57.16c0,1.66-1.34,3-3,3s-3-1.34-3-3c0-34.83,28.33-63.16,63.16-63.16s63.16,28.34,63.16,63.16c0,1.66-1.34,3-3,3Z"/>
        </g>
        <g>
          <path class="cls-1" d="m66.78,156h-31.89c-1.66,0-3-1.34-3-3s1.34-3,3-3h31.89c1.66,0,3,1.34,3,3s-1.34,3-3,3Z"/>
          <path class="cls-1" d="m23.89,156H3c-1.66,0-3-1.34-3-3s1.34-3,3-3h20.89c1.66,0,3,1.34,3,3s-1.34,3-3,3Z"/>
        </g>
        <g>
          <path class="cls-1" d="m187.11,156h-31.89c-1.66,0-3-1.34-3-3s1.34-3,3-3h31.89c1.66,0,3,1.34,3,3s-1.34,3-3,3Z"/>
          <path class="cls-1" d="m144.22,156h-20.89c-1.66,0-3-1.34-3-3s1.34-3,3-3h20.89c1.66,0,3,1.34,3,3s-1.34,3-3,3Z"/>
        </g>
      </g>
    </g>
  </g>
</svg>