<?xml version="1.0" encoding="UTF-8"?>
<svg id="Layer_2" data-name="Layer 2" xmlns="http://www.w3.org/2000/svg" viewBox="0 0 210.42 206">
  <defs>
    <style>
      .cls-1 {
        fill: #383838;
      }
    </style>
  </defs>
  <g id="STROKE_12_PX_EXPAND" data-name="STROKE 12 PX EXPAND">
    <g id="small_rain" data-name="small rain">
      <g id="sun">
        <g>
          <path class="cls-1" d="m144.92,20.58c-1.66,0-3-1.34-3-3V3c0-1.66,1.34-3,3-3s3,1.34,3,3v14.58c0,1.66-1.34,3-3,3Z"/>
          <path class="cls-1" d="m120.96,27c-1.04,0-2.04-.54-2.6-1.5l-7.29-12.62c-.83-1.43-.34-3.27,1.1-4.1,1.44-.83,3.27-.34,4.1,1.1l7.29,12.62c.83,1.44.34,3.27-1.1,4.1-.47.27-.99.4-1.5.4Z"/>
          <path class="cls-1" d="m103.41,44.54c-.51,0-1.03-.13-1.5-.4l-12.62-7.29c-1.43-.83-1.93-2.66-1.1-4.1.83-1.44,2.67-1.92,4.1-1.1l12.62,7.29c1.43.83,1.93,2.66,1.1,4.1-.56.96-1.56,1.5-2.6,1.5Z"/>
          <path class="cls-1" d="m199.04,99.75c-.51,0-1.03-.13-1.5-.4l-12.62-7.29c-1.43-.83-1.93-2.66-1.1-4.1.83-1.44,2.67-1.92,4.1-1.1l12.62,7.29c1.43.83,1.93,2.66,1.1,4.1-.56.96-1.56,1.5-2.6,1.5Z"/>
          <path class="cls-1" d="m207.42,68.5h-14.58c-1.66,0-3-1.34-3-3s1.34-3,3-3h14.58c1.66,0,3,1.34,3,3s-1.34,3-3,3Z"/>
          <path class="cls-1" d="m186.42,44.54c-1.04,0-2.04-.54-2.6-1.5-.83-1.43-.34-3.27,1.1-4.1l12.62-7.29c1.44-.83,3.27-.34,4.1,1.1.83,1.44.34,3.27-1.1,4.1l-12.62,7.29c-.47.27-.99.4-1.5.4Z"/>
          <path class="cls-1" d="m168.88,27c-.51,0-1.03-.13-1.5-.4-1.43-.83-1.93-2.66-1.1-4.1l7.29-12.62c.83-1.44,2.67-1.92,4.1-1.1,1.43.83,1.93,2.66,1.1,4.1l-7.29,12.62c-.56.96-1.56,1.5-2.6,1.5Z"/>
        </g>
        <path class="cls-1" d="m169.52,93.96c-.79,0-1.57-.31-2.16-.91-1.15-1.19-1.12-3.09.07-4.24,6.38-6.17,9.89-14.45,9.89-23.3,0-17.88-14.54-32.42-32.42-32.42-15.55,0-28.94,11.05-31.84,26.28-.31,1.63-1.88,2.7-3.51,2.38-1.63-.31-2.7-1.88-2.38-3.51,3.44-18.05,19.31-31.16,37.74-31.16,21.18,0,38.42,17.23,38.42,38.42,0,10.5-4.16,20.31-11.72,27.62-.58.56-1.33.84-2.09.84Z"/>
      </g>
      <g id="cloud">
        <path class="cls-1" d="m143.25,156h-22.96c-1.66,0-3-1.34-3-3s1.34-3,3-3h22.96c18.52,0,33.58-15.07,33.58-33.59s-15.07-33.58-33.58-33.58c-3.53,0-7.02.55-10.38,1.64-1.44.47-2.99-.21-3.64-1.57-7.74-16.34-24.42-26.9-42.49-26.9-23.17,0-42.67,16.57-46.38,39.41-.13.79-.57,1.5-1.22,1.97-.65.46-1.46.65-2.26.51-1.56-.27-3.11-.41-4.61-.41-14.49,0-26.27,11.78-26.27,26.27s11.78,26.27,26.27,26.27h20.93c1.66,0,3,1.34,3,3s-1.34,3-3,3h-20.93c-17.79,0-32.27-14.47-32.27-32.27s14.48-32.27,32.27-32.27c.89,0,1.8.04,2.71.12,5.29-24.27,26.61-41.58,51.76-41.58,19.52,0,37.6,10.93,46.76,28.05,3.19-.81,6.45-1.22,9.75-1.22,21.83,0,39.58,17.76,39.58,39.58s-17.76,39.59-39.58,39.59Z"/>
      </g>
      <g>
        <g id="drop">
          <path class="cls-1" d="m86.74,206c-17.35,0-31.47-14.12-31.47-31.47,0-6.27,1.63-11.98,5.12-17.99,3.36-5.77,7.99-11.1,12.89-16.74,3.71-4.26,7.54-8.67,11.01-13.54.56-.79,1.47-1.26,2.44-1.26s1.88.47,2.44,1.26c3.46,4.86,7.29,9.26,10.99,13.52,4.93,5.66,9.56,10.99,12.91,16.77,3.49,6.01,5.12,11.73,5.12,17.99,0,17.35-14.12,31.47-31.47,31.47Zm0-72.96c-2.92,3.8-5.96,7.3-8.93,10.7-4.71,5.42-9.16,10.54-12.23,15.82-2.94,5.05-4.31,9.81-4.31,14.98,0,14.04,11.42,25.47,25.47,25.47s25.47-11.42,25.47-25.47c0-5.16-1.37-9.92-4.31-14.98-3.07-5.28-7.52-10.4-12.23-15.82-2.97-3.42-6.01-6.91-8.93-10.7Z"/>
        </g>
        <path class="cls-1" d="m91.26,194.41c-1.33,0-2.54-.88-2.9-2.22-.43-1.6.52-3.25,2.12-3.67,1.22-.33,2.39-.81,3.48-1.45,1.09-.63,2.1-1.41,3-2.31.9-.9,1.67-1.9,2.3-3,.63-1.09,1.12-2.27,1.45-3.48.43-1.6,2.08-2.55,3.67-2.12,1.6.43,2.55,2.07,2.12,3.67-.46,1.73-1.15,3.39-2.05,4.94-.9,1.54-1.99,2.97-3.25,4.23-1.27,1.27-2.69,2.36-4.23,3.25-1.55.9-3.21,1.59-4.94,2.05-.26.07-.52.1-.78.1Z"/>
      </g>
    </g>
  </g>
</svg>