<?xml version="1.0" encoding="UTF-8"?>
<svg id="Layer_2" data-name="Layer 2" xmlns="http://www.w3.org/2000/svg" viewBox="0 0 195.04 155.99">
  <defs>
    <style>
      .cls-1 {
        fill: #383838;
      }
    </style>
  </defs>
  <g id="STROKE_12_PX_EXPAND" data-name="STROKE 12 PX EXPAND">
    <g id="starfall">
      <g id="speed">
        <path class="cls-1" d="m117.25,121.07c-.77,0-1.54-.29-2.12-.88-1.17-1.17-1.17-3.07,0-4.24l30.95-30.95c1.17-1.17,3.07-1.17,4.24,0,1.17,1.17,1.17,3.07,0,4.24l-30.95,30.95c-.59.59-1.35.88-2.12.88Z"/>
        <path class="cls-1" d="m100.91,137.41c-.77,0-1.54-.29-2.12-.88-1.17-1.17-1.17-3.07,0-4.24l7.07-7.07c1.17-1.17,3.07-1.17,4.24,0,1.17,1.17,1.17,3.07,0,4.24l-7.07,7.07c-.59.59-1.35.88-2.12.88Z"/>
        <path class="cls-1" d="m55.13,48.85c-.77,0-1.54-.29-2.12-.88-1.17-1.17-1.17-3.07,0-4.24l22.97-22.97c1.17-1.17,3.07-1.17,4.24,0,1.17,1.17,1.17,3.07,0,4.24l-22.97,22.97c-.59.59-1.35.88-2.12.88Z"/>
        <path class="cls-1" d="m116.77,88.4c-.77,0-1.54-.29-2.12-.88-1.17-1.17-1.17-3.07,0-4.24l26.37-26.37c1.17-1.17,3.07-1.17,4.24,0,1.17,1.17,1.17,3.07,0,4.24l-26.37,26.37c-.59.59-1.35.88-2.12.88Z"/>
        <path class="cls-1" d="m91.99,79.16c-.77,0-1.54-.29-2.12-.88-1.17-1.17-1.17-3.07,0-4.24l22.06-22.06c1.17-1.17,3.07-1.17,4.24,0,1.17,1.17,1.17,3.07,0,4.24l-22.06,22.06c-.59.59-1.35.88-2.12.88Z"/>
        <path class="cls-1" d="m87.56,49.55c-.77,0-1.54-.29-2.12-.88-1.17-1.17-1.17-3.07,0-4.24l25.46-25.46c1.17-1.17,3.07-1.17,4.24,0,1.17,1.17,1.17,3.07,0,4.24l-25.46,25.46c-.59.59-1.35.88-2.12.88Z"/>
        <path class="cls-1" d="m122.67,48.47c-.77,0-1.54-.29-2.12-.88-1.17-1.17-1.17-3.07,0-4.24l7.07-7.07c1.17-1.17,3.07-1.17,4.24,0,1.17,1.17,1.17,3.07,0,4.24l-7.07,7.07c-.59.59-1.35.88-2.12.88Z"/>
        <path class="cls-1" d="m124.05,13.07c-.77,0-1.54-.29-2.12-.88-1.17-1.17-1.17-3.07,0-4.24l7.07-7.07c1.17-1.17,3.07-1.17,4.24,0,1.17,1.17,1.17,3.07,0,4.24l-7.07,7.07c-.59.59-1.35.88-2.12.88Z"/>
        <path class="cls-1" d="m167.33,70.99c-.77,0-1.54-.29-2.12-.88-1.17-1.17-1.17-3.07,0-4.24l7.07-7.07c1.17-1.17,3.07-1.17,4.24,0,1.17,1.17,1.17,3.07,0,4.24l-7.07,7.07c-.59.59-1.35.88-2.12.88Z"/>
      </g>
      <path class="cls-1" d="m180.88,51c-1.01,0-2.02-.24-2.96-.71l-9.36-4.74-9.36,4.74c-2.2,1.12-4.81.91-6.8-.54-2-1.45-3-3.87-2.62-6.3l1.62-10.37-7.4-7.43c-1.74-1.75-2.35-4.29-1.59-6.64.76-2.35,2.75-4.05,5.18-4.44l10.36-1.66,4.78-9.34c1.12-2.2,3.36-3.56,5.82-3.56s4.7,1.36,5.82,3.56h0s4.78,9.34,4.78,9.34l10.36,1.66c2.44.39,4.42,2.09,5.19,4.44.76,2.35.15,4.89-1.59,6.64l-7.4,7.43,1.62,10.37c.38,2.44-.62,4.85-2.62,6.3-1.14.83-2.49,1.25-3.84,1.25Zm-12.32-11.82c.46,0,.93.11,1.36.32l10.71,5.43c.2.1.39.08.57-.04s.25-.31.22-.52l-1.85-11.87c-.15-.94.16-1.9.84-2.58l8.48-8.51c.16-.16.2-.34.13-.55-.07-.21-.21-.33-.43-.37l-11.86-1.9c-.94-.15-1.76-.74-2.19-1.59l-5.48-10.69h0c-.2-.39-.76-.39-.97,0l-5.48,10.69c-.44.85-1.25,1.44-2.19,1.59l-11.86,1.9c-.22.03-.36.16-.43.37-.07.21-.02.39.13.55l8.48,8.51c.67.68.99,1.64.84,2.58l-1.85,11.87c-.03.22.04.39.22.52.18.13.37.15.57.04l10.71-5.43c.43-.22.89-.32,1.36-.32Z"/>
      <path class="cls-1" d="m78.57,155.99c-1.62,0-3.24-.38-4.74-1.14l-21.26-10.78-21.26,10.78c-3.52,1.79-7.7,1.45-10.9-.87-3.2-2.32-4.8-6.19-4.19-10.1l3.68-23.55L3.06,103.44c-2.79-2.8-3.76-6.87-2.54-10.63s4.4-6.48,8.31-7.11l23.54-3.78,10.87-21.22c1.8-3.52,5.38-5.7,9.33-5.7s7.53,2.18,9.33,5.7h0l10.87,21.22,23.54,3.78c3.9.63,7.08,3.35,8.31,7.11s.25,7.83-2.54,10.63l-16.82,16.89,3.68,23.55c.61,3.9-1,7.77-4.19,10.1-1.83,1.33-3.98,2.01-6.15,2.01Zm-26.01-18.28c.46,0,.93.11,1.36.32l22.62,11.47c1.53.78,3.27.64,4.66-.37,1.39-1.01,2.06-2.62,1.79-4.32l-3.91-25.06c-.15-.94.16-1.9.84-2.58l17.89-17.97c1.21-1.21,1.62-2.91,1.09-4.55-.53-1.63-1.86-2.77-3.55-3.04l-25.04-4.02c-.94-.15-1.76-.74-2.2-1.59l-11.56-22.57c-.78-1.53-2.27-2.44-3.99-2.44s-3.21.91-3.99,2.44l-11.56,22.57c-.44.85-1.25,1.44-2.2,1.59l-25.04,4.02c-1.69.27-3.02,1.41-3.55,3.04-.53,1.63-.12,3.33,1.09,4.55l17.89,17.97c.67.68.99,1.64.84,2.58l-3.91,25.06c-.26,1.69.41,3.31,1.79,4.32,1.39,1.01,3.13,1.15,4.66.37l22.62-11.47c.43-.22.89-.32,1.36-.32Z"/>
      <path class="cls-1" d="m132.66,138.81c-.77,0-1.54-.29-2.12-.88-1.17-1.17-1.17-3.07,0-4.24l20.96-20.96c1.17-1.17,3.07-1.17,4.24,0,1.17,1.17,1.17,3.07,0,4.24l-20.96,20.96c-.59.59-1.35.88-2.12.88Z"/>
    </g>
  </g>
</svg>