<?xml version="1.0" encoding="UTF-8"?>
<svg id="Layer_2" data-name="Layer 2" xmlns="http://www.w3.org/2000/svg" viewBox="0 0 146.33 155.99">
  <defs>
    <style>
      .cls-1 {
        fill: #383838;
      }
    </style>
  </defs>
  <g id="STROKE_12_PX_EXPAND" data-name="STROKE 12 PX EXPAND">
    <g id="stars">
      <path class="cls-1" d="m53.13,155.99c-2.17,0-4.32-.68-6.15-2.01-3.2-2.32-4.8-6.19-4.19-10.1l3.68-23.55-16.82-16.89c-2.79-2.8-3.76-6.88-2.54-10.63,1.22-3.76,4.4-6.48,8.31-7.11l23.54-3.78,10.87-21.22c1.8-3.52,5.38-5.7,9.33-5.7s7.53,2.18,9.33,5.7l10.87,21.22,23.54,3.78c3.9.63,7.08,3.35,8.3,7.11,1.22,3.76.25,7.83-2.54,10.63l-16.82,16.89,3.68,23.55c.61,3.91-1,7.77-4.19,10.1-3.2,2.32-7.37,2.66-10.9.87l-21.26-10.78-21.26,10.78c-1.5.76-3.13,1.14-4.75,1.14Zm26.01-94.99c-1.71,0-3.21.91-3.99,2.44l-11.56,22.57c-.44.85-1.25,1.44-2.19,1.59l-25.04,4.02c-1.69.27-3.02,1.41-3.55,3.04-.53,1.63-.12,3.33,1.09,4.55l17.89,17.97c.67.68.99,1.64.84,2.58l-3.91,25.06c-.26,1.69.41,3.31,1.79,4.32,1.39,1.01,3.13,1.15,4.66.37l22.62-11.47c.85-.43,1.86-.43,2.71,0l22.62,11.47c1.53.78,3.27.64,4.66-.37,1.39-1.01,2.06-2.62,1.79-4.32l-3.91-25.06c-.15-.94.16-1.9.84-2.58l17.89-17.97c1.21-1.22,1.62-2.92,1.09-4.55-.53-1.63-1.86-2.77-3.55-3.04l-25.04-4.02c-.94-.15-1.76-.74-2.19-1.59l-11.56-22.57h0c-.78-1.53-2.27-2.44-3.99-2.44Z"/>
      <path class="cls-1" d="m16.92,62.17c-1.54,0-3.06-.48-4.36-1.42-2.26-1.64-3.4-4.38-2.97-7.15l2.08-13.31L2.17,30.73c-1.98-1.98-2.67-4.87-1.8-7.53.86-2.66,3.12-4.59,5.88-5.04l13.3-2.14,6.14-11.99c1.28-2.49,3.81-4.04,6.61-4.04s5.33,1.55,6.61,4.04h0l6.14,11.99,13.3,2.14c2.76.44,5.02,2.37,5.88,5.04.87,2.66.18,5.55-1.8,7.53l-9.51,9.55,2.08,13.31c.43,2.77-.71,5.51-2.97,7.15-2.26,1.64-5.22,1.88-7.72.62l-12.02-6.09-12.02,6.09c-1.07.54-2.22.81-3.36.81ZM32.3,6c-.26,0-.91.08-1.27.77l-6.84,13.35c-.44.85-1.25,1.44-2.2,1.59l-14.81,2.38c-.77.12-1.05.72-1.13.96-.08.25-.21.89.34,1.44l10.58,10.63c.67.68.99,1.64.84,2.58l-2.31,14.82c-.12.78.36,1.22.57,1.37.21.15.78.47,1.48.12l13.38-6.78c.85-.43,1.86-.43,2.71,0l13.38,6.78c.7.36,1.27.04,1.48-.12.21-.15.69-.59.57-1.37l-2.31-14.82c-.15-.94.16-1.9.84-2.58l10.58-10.63c.55-.56.43-1.2.34-1.44-.08-.25-.35-.84-1.13-.96l-14.81-2.38c-.94-.15-1.76-.74-2.2-1.59l-6.84-13.35c-.36-.7-1-.77-1.27-.77Z"/>
      <path class="cls-1" d="m113.1,51.29c-1.24,0-2.47-.39-3.52-1.15-1.83-1.33-2.75-3.54-2.4-5.77l1.33-8.52-6.09-6.11c-1.59-1.6-2.15-3.93-1.45-6.08.7-2.15,2.52-3.71,4.75-4.07l8.51-1.37,3.93-7.68c1.03-2.01,3.07-3.26,5.33-3.26s4.3,1.25,5.33,3.26l3.93,7.68,8.51,1.37c2.23.36,4.05,1.92,4.75,4.07.7,2.15.14,4.48-1.45,6.08l-6.09,6.11,1.33,8.52c.35,2.23-.57,4.44-2.4,5.77-1.83,1.33-4.21,1.52-6.23.5l-7.69-3.9-7.69,3.9c-.86.44-1.79.65-2.71.65Zm10.39-38.02l-4.6,9.04c-.44.85-1.25,1.44-2.2,1.59l-10.02,1.61,7.16,7.17c.67.68.99,1.64.84,2.58l-1.57,10.02,9.04-4.6c.85-.43,1.86-.43,2.71,0l9.05,4.59-1.58-10.01c-.15-.94.16-1.9.84-2.58l7.16-7.19-10.01-1.59c-.94-.15-1.76-.74-2.2-1.59l-4.62-9.03h0v-.02Z"/>
    </g>
  </g>
</svg>