<?xml version="1.0" encoding="UTF-8"?>
<svg id="Layer_2" data-name="Layer 2" xmlns="http://www.w3.org/2000/svg" viewBox="0 0 213.92 156">
  <defs>
    <style>
      .cls-1 {
        fill: #383838;
      }
    </style>
  </defs>
  <g id="STROKE_12_PX_EXPAND" data-name="STROKE 12 PX EXPAND">
    <g id="sunset">
      <g id="sun">
        <g>
          <path class="cls-1" d="m106.96,26.79c-1.66,0-3-1.34-3-3V3c0-1.66,1.34-3,3-3s3,1.34,3,3v20.79c0,1.66-1.34,3-3,3Z"/>
          <path class="cls-1" d="m72.8,35.94c-1.04,0-2.05-.54-2.6-1.5l-10.39-17.99c-.83-1.44-.34-3.27,1.1-4.1,1.44-.83,3.27-.34,4.1,1.1l10.39,17.99c.83,1.44.34,3.27-1.1,4.1-.47.27-.99.4-1.5.4Z"/>
          <path class="cls-1" d="m47.78,60.94c-.51,0-1.03-.13-1.5-.4l-17.99-10.39c-1.43-.83-1.93-2.66-1.1-4.1.83-1.43,2.67-1.92,4.1-1.1l17.99,10.39c1.43.83,1.93,2.66,1.1,4.1-.56.96-1.56,1.5-2.6,1.5Z"/>
          <path class="cls-1" d="m38.64,95.11h-20.79c-1.66,0-3-1.34-3-3s1.34-3,3-3h20.79c1.66,0,3,1.34,3,3s-1.34,3-3,3Z"/>
          <path class="cls-1" d="m196.07,95.11h-20.79c-1.66,0-3-1.34-3-3s1.34-3,3-3h20.79c1.66,0,3,1.34,3,3s-1.34,3-3,3Z"/>
          <path class="cls-1" d="m166.13,60.94c-1.04,0-2.05-.54-2.6-1.5-.83-1.44-.34-3.27,1.1-4.1l17.99-10.39c1.43-.83,3.27-.34,4.1,1.1.83,1.44.34,3.27-1.1,4.1l-17.99,10.39c-.47.27-.99.4-1.5.4Z"/>
          <path class="cls-1" d="m141.12,35.94c-.51,0-1.03-.13-1.5-.4-1.43-.83-1.93-2.66-1.1-4.1l10.39-17.99c.83-1.43,2.67-1.92,4.1-1.1,1.43.83,1.93,2.66,1.1,4.1l-10.39,17.99c-.56.96-1.56,1.5-2.6,1.5Z"/>
        </g>
        <path class="cls-1" d="m63.22,120.36c-1.07,0-2.06-.57-2.6-1.5-4.69-8.1-7.16-17.35-7.16-26.75,0-29.5,24-53.49,53.49-53.49s53.49,24,53.49,53.49c0,9.41-2.48,18.66-7.16,26.75-.54.93-1.53,1.5-2.6,1.5H63.22Zm87.47-3.01h0,0Zm-43.73-72.74c-26.19,0-47.49,21.31-47.49,47.49,0,7.78,1.91,15.43,5.53,22.25h83.94c3.62-6.82,5.53-14.47,5.53-22.25,0-26.19-21.3-47.49-47.49-47.49Z"/>
      </g>
      <g>
        <path class="cls-1" d="m106.96,105.72c-.52,0-1.04-.13-1.5-.4l-17.99-10.39c-1.43-.83-1.93-2.66-1.1-4.1.83-1.44,2.67-1.92,4.1-1.1l16.49,9.52,16.49-9.52c1.43-.83,3.27-.34,4.1,1.1.83,1.43.34,3.27-1.1,4.1l-17.99,10.39c-.46.27-.98.4-1.5.4Z"/>
        <path class="cls-1" d="m106.96,105.72c-1.66,0-3-1.34-3-3v-35.42c0-1.66,1.34-3,3-3s3,1.34,3,3v35.42c0,1.66-1.34,3-3,3Z"/>
      </g>
      <path class="cls-1" d="m210.92,120.36H3c-1.66,0-3-1.34-3-3s1.34-3,3-3h207.92c1.66,0,3,1.34,3,3s-1.34,3-3,3Z"/>
      <path class="cls-1" d="m181.21,138.18h-110.44c-1.66,0-3-1.34-3-3s1.34-3,3-3h110.44c1.66,0,3,1.34,3,3s-1.34,3-3,3Z"/>
      <path class="cls-1" d="m49.78,138.18h-17.08c-1.66,0-3-1.34-3-3s1.34-3,3-3h17.08c1.66,0,3,1.34,3,3s-1.34,3-3,3Z"/>
      <path class="cls-1" d="m151.51,156h-17.38c-1.66,0-3-1.34-3-3s1.34-3,3-3h17.38c1.66,0,3,1.34,3,3s-1.34,3-3,3Z"/>
      <path class="cls-1" d="m116.31,156h-53.91c-1.66,0-3-1.34-3-3s1.34-3,3-3h53.91c1.66,0,3,1.34,3,3s-1.34,3-3,3Z"/>
    </g>
  </g>
</svg>