<?xml version="1.0" encoding="UTF-8"?>
<svg id="Layer_2" data-name="Layer 2" xmlns="http://www.w3.org/2000/svg" viewBox="0 0 170.9 156">
  <defs>
    <style>
      .cls-1 {
        fill: #383838;
      }
    </style>
  </defs>
  <g id="STROKE_12_PX_EXPAND" data-name="STROKE 12 PX EXPAND">
    <g id="thaw">
      <g id="thaw_icon" data-name="thaw icon">
        <g id="icicles">
          <path class="cls-1" d="m62.05,106h0c-1.29,0-2.44-.83-2.85-2.05l-23.96-71.9c-.52-1.57.33-3.27,1.9-3.79,1.58-.52,3.27.33,3.8,1.9l21.11,63.36L91.22,6h-26.17v33.19c0,1.66-1.34,3-3,3s-3-1.34-3-3V3c0-1.66,1.34-3,3-3h33.33c.96,0,1.87.46,2.43,1.25.56.78.72,1.79.41,2.7l-33.33,100c-.41,1.22-1.55,2.05-2.85,2.05Z"/>
          <path class="cls-1" d="m25.23,72.7c-1.29,0-2.44-.83-2.85-2.05L.15,3.95C-.15,3.03,0,2.03.57,1.25,1.13.46,2.04,0,3,0h12.33c1.66,0,3,1.34,3,3s-1.34,3-3,3H7.16l18.07,54.21L43.3,6h-15.07v21.14c0,1.66-1.34,3-3,3s-3-1.34-3-3V3c0-1.66,1.34-3,3-3h22.23c.96,0,1.87.46,2.43,1.25.56.78.72,1.79.41,2.7l-22.23,66.7c-.41,1.22-1.55,2.05-2.85,2.05Z"/>
          <path class="cls-1" d="m142.07,83.48c-1.29,0-2.44-.83-2.85-2.05L113.4,3.95c-.3-.91-.15-1.92.41-2.7C114.38.46,115.28,0,116.25,0h14.32c1.66,0,3,1.34,3,3s-1.34,3-3,3h-10.16l21.66,64.99L163.73,6h-18.66v25.04c0,1.66-1.34,3-3,3s-3-1.34-3-3V3C139.07,1.34,140.42,0,142.07,0h25.83c.96,0,1.87.46,2.43,1.25.56.78.72,1.79.41,2.7l-25.83,77.48c-.41,1.22-1.55,2.05-2.85,2.05Z"/>
        </g>
      </g>
      <g>
        <path class="cls-1" d="m87.72,134.82c-10.55,0-19.13-8.58-19.13-19.13,0-3.79.98-7.24,3.08-10.85,1.97-3.38,4.63-6.45,7.45-9.69l.21-.24c2.01-2.32,4.09-4.71,5.95-7.33.56-.79,1.47-1.26,2.44-1.26h0c.97,0,1.88.47,2.44,1.26,1.91,2.67,4.03,5.11,6.07,7.47l.09.1c1.75,2.02,3.37,3.87,4.84,5.82,1,1.32.74,3.2-.59,4.2-1.32,1-3.2.74-4.2-.59-1.34-1.78-2.89-3.56-4.53-5.45l-.14-.16c-1.32-1.52-2.66-3.07-3.98-4.71-1.28,1.59-2.59,3.09-3.86,4.57l-.21.25c-2.63,3.02-5.11,5.88-6.79,8.77-1.54,2.66-2.26,5.15-2.26,7.83,0,7.24,5.89,13.13,13.13,13.13,1.01,0,2.02-.12,3-.35,1.62-.38,3.23.62,3.61,2.23.38,1.61-.62,3.23-2.23,3.61-1.43.34-2.9.51-4.38.51Z"/>
        <g id="drop">
          <g id="drop-2" data-name="drop">
            <path class="cls-1" d="m119.06,156c-17.35,0-31.47-14.12-31.47-31.47,0-6.27,1.63-11.98,5.12-17.99,3.36-5.77,7.99-11.1,12.89-16.74,3.71-4.26,7.54-8.67,11.01-13.54.56-.79,1.47-1.26,2.44-1.26s1.88.47,2.44,1.26c3.46,4.86,7.29,9.26,10.98,13.51,4.93,5.67,9.56,11,12.92,16.77,3.49,6.01,5.12,11.73,5.12,17.99,0,17.35-14.12,31.47-31.47,31.47Zm0-72.96c-2.92,3.8-5.96,7.29-8.93,10.7-4.71,5.42-9.16,10.54-12.24,15.82-2.94,5.05-4.31,9.81-4.31,14.98,0,14.04,11.42,25.47,25.47,25.47s25.47-11.42,25.47-25.47c0-5.16-1.37-9.92-4.31-14.98-3.07-5.28-7.52-10.4-12.23-15.82-2.98-3.42-6.01-6.92-8.93-10.7Z"/>
          </g>
          <path class="cls-1" d="m122.25,144.71c-1.42,0-2.68-1.01-2.95-2.45-.3-1.63.77-3.19,2.4-3.5,5.92-1.1,10.58-5.81,11.61-11.74.28-1.63,1.84-2.72,3.47-2.44,1.63.28,2.73,1.84,2.44,3.47-1.46,8.39-8.06,15.06-16.43,16.61-.18.03-.37.05-.55.05Z"/>
        </g>
      </g>
    </g>
  </g>
</svg>