<?xml version="1.0" encoding="UTF-8"?>
<svg id="Layer_2" data-name="Layer 2" xmlns="http://www.w3.org/2000/svg" viewBox="0 0 197.32 194.61">
  <defs>
    <style>
      .cls-1 {
        fill: #383838;
      }
    </style>
  </defs>
  <g id="STROKE_12_PX_EXPAND" data-name="STROKE 12 PX EXPAND">
    <g id="thunderstorm">
      <path class="cls-1" d="m166.56,91.22c-1.29,0-2.49-.84-2.88-2.15-.47-1.59.44-3.26,2.03-3.73,3.02-.89,5.96-2.16,8.75-3.75,4.89-2.82,9.05-6.53,12.32-10.96-16.84,5.96-36.1-.74-45.34-16.74-5.05-8.74-6.4-18.93-3.78-28.69,2.01-7.48,6.16-14.02,11.93-18.94-5.46.62-10.75,2.36-15.63,5.18-16.69,9.62-24.32,29.83-18.14,48.05.53,1.57-.31,3.27-1.88,3.8-1.57.54-3.27-.31-3.8-1.88-7.1-20.92,1.66-44.12,20.82-55.17,8.87-5.12,18.93-7.15,29.08-5.87,1.33.17,2.38,1.19,2.59,2.51.21,1.32-.49,2.62-1.7,3.18-.91.42-1.8.88-2.65,1.37-7.35,4.25-12.62,11.11-14.82,19.31-2.2,8.21-1.07,16.78,3.18,24.13,8.76,15.18,28.25,20.4,43.44,11.64.89-.51,1.71-1.04,2.51-1.6,1.09-.77,2.57-.72,3.61.11,1.04.84,1.4,2.27.89,3.5-3.96,9.43-10.74,17.12-19.63,22.25-3.19,1.83-6.57,3.28-10.04,4.31-.28.08-.57.12-.85.12Z"/>
      <g id="cloud">
        <path class="cls-1" d="m143.24,156.01h-9.4c-1.66,0-3-1.34-3-3s1.34-3,3-3h9.4c18.52,0,33.59-15.07,33.59-33.59s-15.07-33.59-33.59-33.59c-3.53,0-7.02.55-10.38,1.64-1.44.47-2.99-.21-3.64-1.57-7.74-16.34-24.42-26.9-42.49-26.9-23.16,0-42.67,16.57-46.38,39.4-.13.79-.57,1.5-1.22,1.97-.66.46-1.46.65-2.26.51-1.54-.27-3.09-.41-4.61-.41-14.49,0-26.27,11.78-26.27,26.27s11.78,26.27,26.27,26.27h18.32c1.66,0,3,1.34,3,3s-1.34,3-3,3h-18.32c-17.79,0-32.27-14.48-32.27-32.27s14.48-32.27,32.27-32.27c.9,0,1.8.04,2.71.12,5.29-24.26,26.61-41.58,51.76-41.58,19.52,0,37.6,10.93,46.76,28.05,3.18-.81,6.45-1.22,9.74-1.22,21.83,0,39.59,17.76,39.59,39.59s-17.76,39.59-39.59,39.59Z"/>
      </g>
      <g id="lightning">
        <path class="cls-1" d="m93.45,194.61c-.39,0-.79-.08-1.16-.24-1.3-.55-2.04-1.92-1.79-3.3l6.4-35.06h-35.32c-1.12,0-2.15-.62-2.66-1.62-.52-.99-.44-2.19.21-3.11l43.12-61.4c.81-1.15,2.32-1.59,3.61-1.04,1.3.54,2.05,1.92,1.79,3.31l-6.52,35.64h35.48c1.12,0,2.15.63,2.67,1.62.51,1,.43,2.2-.22,3.11l-43.16,60.82c-.58.81-1.5,1.26-2.45,1.26Zm-26.09-44.6h33.14c.89,0,1.73.4,2.3,1.08.57.68.81,1.58.65,2.46l-4.62,25.29,31.97-45.05h-33.27c-.89,0-1.73-.39-2.3-1.08-.57-.68-.81-1.58-.65-2.46l4.71-25.71-31.93,45.47Z"/>
      </g>
    </g>
  </g>
</svg>