<?xml version="1.0" encoding="UTF-8"?>
<svg id="Layer_2" data-name="Layer 2" xmlns="http://www.w3.org/2000/svg" viewBox="0 0 87.77 147.38">
  <defs>
    <style>
      .cls-1 {
        fill: #383838;
      }
    </style>
  </defs>
  <g id="STROKE_12_PX_EXPAND" data-name="STROKE 12 PX EXPAND">
    <g id="degrees_Celsius" data-name="degrees Celsius">
      <path class="cls-1" d="m53.14,147.38H18c-9.92,0-18-8.08-18-18V59.38c0-9.92,8.08-18,18-18h35.14c1.66,0,3,1.34,3,3s-1.34,3-3,3H18c-6.62,0-12,5.38-12,12v70c0,6.62,5.38,12,12,12h35.14c1.66,0,3,1.34,3,3s-1.34,3-3,3Z"/>
      <path class="cls-1" d="m72.77,30c-8.27,0-15-6.73-15-15S64.5,0,72.77,0s15,6.73,15,15-6.73,15-15,15Zm0-24c-4.96,0-9,4.04-9,9s4.04,9,9,9,9-4.04,9-9-4.04-9-9-9Z"/>
    </g>
  </g>
</svg>