<?xml version="1.0" encoding="UTF-8"?>
<svg id="Layer_2" data-name="Layer 2" xmlns="http://www.w3.org/2000/svg" viewBox="0 0 170.9 156">
  <defs>
    <style>
      .cls-1 {
        fill: #383838;
      }
    </style>
  </defs>
  <g id="STROKE_12_PX_EXPAND" data-name="STROKE 12 PX EXPAND">
    <g id="frost">
      <g id="icicles">
        <path class="cls-1" d="m62.05,106h0c-1.29,0-2.44-.83-2.85-2.05l-23.96-71.89c-.52-1.57.33-3.27,1.9-3.79,1.57-.52,3.27.33,3.79,1.9l21.11,63.35L91.23,6h-26.18v33.19c0,1.66-1.34,3-3,3s-3-1.34-3-3V3c0-1.66,1.34-3,3-3h33.34c.96,0,1.87.46,2.43,1.25.56.78.72,1.79.41,2.7l-33.34,100c-.41,1.22-1.55,2.05-2.85,2.05Z"/>
        <path class="cls-1" d="m25.23,72.7c-1.29,0-2.44-.83-2.85-2.05L.15,3.95C-.15,3.03,0,2.03.57,1.25,1.13.46,2.04,0,3,0h12.33c1.66,0,3,1.34,3,3s-1.34,3-3,3H7.16l18.07,54.21L43.3,6h-15.07v21.14c0,1.66-1.34,3-3,3s-3-1.34-3-3V3c0-1.66,1.34-3,3-3h22.23c.96,0,1.87.46,2.43,1.25.56.78.72,1.79.41,2.7l-22.23,66.7c-.41,1.22-1.55,2.05-2.85,2.05Z"/>
        <path class="cls-1" d="m142.07,83.48c-1.29,0-2.44-.83-2.85-2.05L113.4,3.95c-.3-.91-.15-1.92.41-2.7C114.38.46,115.28,0,116.25,0h14.32c1.66,0,3,1.34,3,3s-1.34,3-3,3h-10.16l21.66,64.99L163.73,6h-18.66v25.04c0,1.66-1.34,3-3,3s-3-1.34-3-3V3C139.07,1.34,140.42,0,142.07,0h25.83c.96,0,1.87.46,2.43,1.25.56.78.72,1.79.41,2.7l-25.83,77.48c-.41,1.22-1.55,2.05-2.85,2.05Z"/>
      </g>
      <g id="snowflake">
        <g>
          <path class="cls-1" d="m108.5,150c-1.66,0-3-1.34-3-3v-16.08c0-1.66,1.34-3,3-3s3,1.34,3,3v16.08c0,1.66-1.34,3-3,3Z"/>
          <path class="cls-1" d="m108.51,113.92c-1.66,0-3-1.34-3-3v-16.08c0-1.66,1.34-3,3-3s3,1.34,3,3v16.08c0,1.66-1.34,3-3,3Z"/>
          <path class="cls-1" d="m108.52,97.84c-.56,0-1.12-.16-1.61-.47l-9.45-5.99c-1.4-.89-1.82-2.74-.93-4.14.89-1.4,2.74-1.81,4.14-.93l7.84,4.97,7.84-4.97c1.4-.88,3.25-.47,4.14.93.89,1.4.47,3.25-.93,4.14l-9.45,5.99c-.49.31-1.05.47-1.61.47Z"/>
          <path class="cls-1" d="m117.97,156c-.55,0-1.1-.15-1.6-.47l-7.84-4.97-7.84,4.97c-1.4.89-3.25.47-4.14-.93-.89-1.4-.47-3.25.93-4.14l9.45-5.99c.98-.62,2.23-.62,3.21,0l9.45,5.99c1.4.89,1.82,2.74.93,4.14-.57.9-1.54,1.39-2.54,1.39Z"/>
        </g>
        <g>
          <path class="cls-1" d="m131.09,136.96c-.51,0-1.02-.13-1.5-.4l-13.93-8.03c-1.44-.83-1.93-2.66-1.1-4.1.83-1.44,2.66-1.93,4.1-1.1l13.93,8.03c1.44.83,1.93,2.66,1.1,4.1-.56.96-1.56,1.5-2.6,1.5Z"/>
          <path class="cls-1" d="m99.84,118.92c-.51,0-1.03-.13-1.5-.4l-13.92-8.04c-1.43-.83-1.93-2.66-1.1-4.1.83-1.43,2.67-1.92,4.1-1.1l13.92,8.04c1.43.83,1.93,2.66,1.1,4.1-.56.96-1.56,1.5-2.6,1.5Z"/>
          <path class="cls-1" d="m76.02,116.08c-1.08,0-2.12-.58-2.66-1.61-.77-1.47-.2-3.28,1.27-4.05l8.23-4.31-.38-9.28c-.07-1.66,1.22-3.05,2.87-3.12,1.66-.05,3.05,1.22,3.12,2.87l.46,11.18c.05,1.16-.58,2.24-1.61,2.78l-9.91,5.19c-.44.23-.92.34-1.39.34Z"/>
          <path class="cls-1" d="m131.57,148.15c-1.6,0-2.93-1.26-3-2.88l-.46-11.18c-.05-1.16.58-2.24,1.61-2.78l9.91-5.19c1.47-.77,3.28-.2,4.05,1.27s.2,3.28-1.27,4.05l-8.23,4.31.38,9.28c.07,1.66-1.22,3.05-2.87,3.12-.04,0-.08,0-.13,0Z"/>
        </g>
        <g>
          <path class="cls-1" d="m117.17,118.91c-1.04,0-2.05-.54-2.6-1.5-.83-1.43-.33-3.27,1.1-4.1l13.92-8.03c1.44-.82,3.27-.34,4.1,1.1.83,1.43.33,3.27-1.1,4.1l-13.92,8.03c-.47.27-.99.4-1.5.4Z"/>
          <path class="cls-1" d="m85.92,136.97c-1.04,0-2.04-.54-2.6-1.5-.83-1.43-.34-3.27,1.1-4.1l13.93-8.04c1.44-.83,3.27-.34,4.1,1.1.83,1.43.34,3.27-1.1,4.1l-13.93,8.04c-.47.27-.99.4-1.5.4Z"/>
          <path class="cls-1" d="m85.47,148.15s-.08,0-.13,0c-1.66-.07-2.94-1.47-2.87-3.12l.38-9.28-8.23-4.31c-1.47-.77-2.03-2.58-1.27-4.05.77-1.47,2.58-2.03,4.05-1.27l9.91,5.19c1.03.54,1.65,1.62,1.61,2.78l-.46,11.18c-.07,1.61-1.4,2.88-3,2.88Z"/>
          <path class="cls-1" d="m141.02,116.08c-.47,0-.95-.11-1.39-.34l-9.91-5.19c-1.03-.54-1.65-1.62-1.61-2.78l.46-11.18c.07-1.66,1.5-2.93,3.12-2.87,1.66.07,2.94,1.47,2.87,3.12l-.38,9.28,8.23,4.31c1.47.77,2.03,2.58,1.27,4.05-.54,1.02-1.58,1.61-2.66,1.61Z"/>
        </g>
      </g>
    </g>
  </g>
</svg>