<?xml version="1.0" encoding="UTF-8"?>
<svg id="Layer_2" data-name="Layer 2" xmlns="http://www.w3.org/2000/svg" viewBox="0 0 210.41 206">
  <defs>
    <style>
      .cls-1 {
        fill: #383838;
      }
    </style>
  </defs>
  <g id="STROKE_12_PX_EXPAND" data-name="STROKE 12 PX EXPAND">
    <g id="hail">
      <g id="sun">
        <g>
          <path class="cls-1" d="m144.92,20.58c-1.66,0-3-1.34-3-3V3c0-1.66,1.34-3,3-3s3,1.34,3,3v14.58c0,1.66-1.34,3-3,3Z"/>
          <path class="cls-1" d="m120.95,27c-1.04,0-2.04-.54-2.6-1.5l-7.29-12.62c-.83-1.43-.34-3.27,1.1-4.1,1.44-.83,3.27-.34,4.1,1.1l7.29,12.62c.83,1.44.34,3.27-1.1,4.1-.47.27-.99.4-1.5.4Z"/>
          <path class="cls-1" d="m103.41,44.54c-.51,0-1.03-.13-1.5-.4l-12.62-7.29c-1.43-.83-1.93-2.66-1.1-4.1.83-1.44,2.67-1.92,4.1-1.1l12.62,7.29c1.43.83,1.93,2.66,1.1,4.1-.56.96-1.56,1.5-2.6,1.5Z"/>
          <path class="cls-1" d="m199.04,99.75c-.51,0-1.03-.13-1.5-.4l-12.62-7.29c-1.43-.83-1.93-2.66-1.1-4.1.83-1.44,2.67-1.92,4.1-1.1l12.62,7.29c1.43.83,1.93,2.66,1.1,4.1-.56.96-1.56,1.5-2.6,1.5Z"/>
          <path class="cls-1" d="m207.41,68.5h-14.58c-1.66,0-3-1.34-3-3s1.34-3,3-3h14.58c1.66,0,3,1.34,3,3s-1.34,3-3,3Z"/>
          <path class="cls-1" d="m186.42,44.54c-1.04,0-2.04-.54-2.6-1.5-.83-1.43-.34-3.27,1.1-4.1l12.62-7.29c1.43-.83,3.27-.34,4.1,1.1.83,1.44.34,3.27-1.1,4.1l-12.62,7.29c-.47.27-.99.4-1.5.4Z"/>
          <path class="cls-1" d="m168.88,27c-.51,0-1.03-.13-1.5-.4-1.43-.83-1.93-2.66-1.1-4.1l7.29-12.62c.83-1.44,2.67-1.92,4.1-1.1,1.43.83,1.93,2.66,1.1,4.1l-7.29,12.62c-.56.96-1.56,1.5-2.6,1.5Z"/>
        </g>
        <path class="cls-1" d="m169.52,93.95c-.79,0-1.57-.31-2.16-.92-1.15-1.19-1.12-3.09.08-4.24,6.38-6.16,9.89-14.43,9.89-23.29,0-17.88-14.54-32.42-32.42-32.42-15.54,0-28.93,11.06-31.83,26.29-.31,1.63-1.87,2.7-3.51,2.39-1.63-.31-2.7-1.88-2.38-3.51,3.44-18.06,19.31-31.17,37.73-31.17,21.18,0,38.42,17.23,38.42,38.42,0,10.5-4.16,20.31-11.73,27.61-.58.56-1.33.84-2.08.84Z"/>
      </g>
      <g id="cloud">
        <g id="cloud-2" data-name="cloud">
          <path class="cls-1" d="m143.24,156H32.27c-17.79,0-32.27-14.48-32.27-32.27s14.48-32.27,32.27-32.27c.9,0,1.8.04,2.71.12,5.29-24.26,26.61-41.58,51.76-41.58,19.52,0,37.6,10.93,46.76,28.05,3.18-.81,6.45-1.22,9.74-1.22,21.83,0,39.59,17.76,39.59,39.59s-17.76,39.59-39.59,39.59Zm-110.97-58.54c-14.49,0-26.27,11.78-26.27,26.27s11.78,26.27,26.27,26.27h110.97c18.52,0,33.59-15.07,33.59-33.59s-15.07-33.59-33.59-33.59c-3.53,0-7.02.55-10.38,1.64-1.44.47-2.99-.21-3.64-1.57-7.74-16.34-24.42-26.9-42.49-26.9-23.16,0-42.67,16.57-46.38,39.4-.13.79-.57,1.5-1.22,1.97-.65.46-1.46.65-2.26.51-1.54-.27-3.09-.41-4.61-.41Z"/>
        </g>
      </g>
      <g>
        <path class="cls-1" d="m21.76,206c-6.77,0-12.28-5.51-12.28-12.28s5.51-12.28,12.28-12.28,12.28,5.51,12.28,12.28-5.51,12.28-12.28,12.28Zm0-18.55c-3.46,0-6.28,2.82-6.28,6.28s2.82,6.28,6.28,6.28,6.28-2.82,6.28-6.28-2.82-6.28-6.28-6.28Z"/>
        <path class="cls-1" d="m48.02,186.79c-6.77,0-12.28-5.51-12.28-12.28s5.51-12.28,12.28-12.28,12.28,5.51,12.28,12.28-5.51,12.28-12.28,12.28Zm0-18.55c-3.46,0-6.28,2.82-6.28,6.28s2.82,6.28,6.28,6.28,6.28-2.82,6.28-6.28-2.82-6.28-6.28-6.28Z"/>
        <path class="cls-1" d="m74.27,206c-6.77,0-12.28-5.51-12.28-12.28s5.51-12.28,12.28-12.28,12.28,5.51,12.28,12.28-5.51,12.28-12.28,12.28Zm0-18.55c-3.46,0-6.28,2.82-6.28,6.28s2.82,6.28,6.28,6.28,6.28-2.82,6.28-6.28-2.82-6.28-6.28-6.28Z"/>
        <path class="cls-1" d="m100.53,186.79c-6.77,0-12.28-5.51-12.28-12.28s5.51-12.28,12.28-12.28,12.28,5.51,12.28,12.28-5.51,12.28-12.28,12.28Zm0-18.55c-3.46,0-6.28,2.82-6.28,6.28s2.82,6.28,6.28,6.28,6.28-2.82,6.28-6.28-2.82-6.28-6.28-6.28Z"/>
        <path class="cls-1" d="m126.78,206c-6.77,0-12.28-5.51-12.28-12.28s5.51-12.28,12.28-12.28,12.28,5.51,12.28,12.28-5.51,12.28-12.28,12.28Zm0-18.55c-3.46,0-6.28,2.82-6.28,6.28s2.81,6.28,6.28,6.28,6.28-2.82,6.28-6.28-2.82-6.28-6.28-6.28Z"/>
      </g>
    </g>
  </g>
</svg>