<?xml version="1.0" encoding="UTF-8"?>
<svg id="Layer_2" data-name="Layer 2" xmlns="http://www.w3.org/2000/svg" viewBox="0 0 161.31 156">
  <defs>
    <style>
      .cls-1 {
        fill: #383838;
      }
    </style>
  </defs>
  <g id="STROKE_12_PX_EXPAND" data-name="STROKE 12 PX EXPAND">
    <g id="humidity">
      <g id="drops">
        <path class="cls-1" d="m31.47,81c-17.35,0-31.47-14.12-31.47-31.47,0-6.26,1.63-11.97,5.12-17.99,3.4-5.84,8.23-11.38,12.9-16.74,3.51-4.04,7.5-8.63,11.01-13.54.56-.79,1.47-1.26,2.44-1.26h0c.97,0,1.88.47,2.44,1.26,3.54,4.97,7.51,9.52,11.01,13.54,4.67,5.36,9.5,10.9,12.89,16.74,1.18,2.03,2.13,3.99,2.89,5.99.59,1.55-.19,3.28-1.74,3.87-1.55.59-3.28-.19-3.87-1.74-.64-1.69-1.45-3.36-2.47-5.11-3.11-5.35-7.54-10.44-12.23-15.82-2.82-3.23-5.93-6.8-8.93-10.71-2.98,3.87-6.1,7.46-8.92,10.71-4.7,5.39-9.13,10.48-12.24,15.82-2.93,5.06-4.3,9.81-4.3,14.97,0,14.04,11.43,25.47,25.47,25.47,1.31,0,2.66-.11,4.02-.32,1.66-.26,3.17.86,3.43,2.5.26,1.64-.86,3.17-2.5,3.43-1.67.26-3.34.4-4.96.4Z"/>
        <path class="cls-1" d="m116.07,81c-1.62,0-3.29-.13-4.97-.4-1.64-.26-2.76-1.79-2.5-3.43.25-1.64,1.8-2.75,3.43-2.5,1.39.22,2.72.32,4.05.32,14.04,0,25.46-11.43,25.46-25.47,0-5.17-1.37-9.93-4.3-14.97-3.1-5.35-7.54-10.43-12.23-15.82-2.82-3.23-5.93-6.8-8.93-10.71-2.98,3.87-6.1,7.46-8.92,10.71-4.7,5.39-9.13,10.48-12.24,15.82-1.01,1.72-1.84,3.43-2.47,5.09-.59,1.55-2.32,2.33-3.87,1.75-1.55-.59-2.33-2.32-1.75-3.87.75-1.98,1.72-4,2.9-6,3.39-5.82,8.22-11.37,12.89-16.73,3.51-4.04,7.5-8.63,11.01-13.54.56-.79,1.47-1.26,2.44-1.26h0c.97,0,1.88.47,2.44,1.26,3.54,4.97,7.51,9.52,11.01,13.54,4.67,5.36,9.5,10.9,12.89,16.74,3.49,5.99,5.12,11.71,5.12,17.99,0,17.35-14.11,31.47-31.46,31.47Z"/>
        <path class="cls-1" d="m119.76,69.61c-1.38,0-2.63-.96-2.93-2.37-.35-1.62.68-3.22,2.3-3.57,5.59-1.21,9.94-5.6,11.11-11.19.34-1.62,1.93-2.66,3.55-2.33,1.62.34,2.66,1.93,2.33,3.55-1.65,7.91-7.81,14.13-15.71,15.83-.21.05-.43.07-.64.07Z"/>
        <g id="drop">
          <g id="drop-2" data-name="drop">
            <path class="cls-1" d="m73.77,122.15c-22.58,0-40.96-18.37-40.96-40.96,0-8.17,2.13-15.63,6.69-23.49,4.43-7.61,10.57-14.68,17.08-22.16,4.96-5.7,10.08-11.59,14.75-18.14.56-.79,1.47-1.26,2.44-1.26.97,0,1.88.47,2.44,1.26,4.66,6.54,9.78,12.43,14.74,18.13,6.51,7.48,12.65,14.55,17.08,22.17,4.56,7.85,6.69,15.31,6.69,23.49,0,22.58-18.37,40.96-40.96,40.96Zm0-97.93c-4.12,5.45-8.45,10.42-12.66,15.26-6.32,7.27-12.28,14.12-16.42,21.24-4.01,6.9-5.88,13.4-5.88,20.47,0,19.27,15.68,34.96,34.96,34.96s34.96-15.68,34.96-34.96c0-7.07-1.87-13.57-5.88-20.47-4.14-7.13-10.11-13.99-16.42-21.24-4.21-4.84-8.54-9.82-12.66-15.26Z"/>
          </g>
          <path class="cls-1" d="m73.77,111.15c-1.66,0-3-1.34-3-3s1.34-3,3-3c13.21,0,23.96-10.75,23.96-23.96,0-1.66,1.34-3,3-3s3,1.34,3,3c0,16.52-13.44,29.96-29.96,29.96Z"/>
        </g>
      </g>
      <g id="percent">
        <path class="cls-1" d="m122.68,129.12c-6.48,0-11.75-5.27-11.75-11.75s5.27-11.75,11.75-11.75,11.75,5.27,11.75,11.75-5.27,11.75-11.75,11.75Zm0-17.5c-3.17,0-5.75,2.58-5.75,5.75s2.58,5.75,5.75,5.75,5.75-2.58,5.75-5.75-2.58-5.75-5.75-5.75Z"/>
        <path class="cls-1" d="m149.56,156c-6.48,0-11.75-5.27-11.75-11.75s5.27-11.75,11.75-11.75,11.75,5.27,11.75,11.75-5.27,11.75-11.75,11.75Zm0-17.5c-3.17,0-5.75,2.58-5.75,5.75s2.58,5.75,5.75,5.75,5.75-2.58,5.75-5.75-2.58-5.75-5.75-5.75Z"/>
        <path class="cls-1" d="m118.2,151.73c-.77,0-1.54-.29-2.12-.88-1.17-1.17-1.17-3.07,0-4.24l35.85-35.85c1.17-1.17,3.07-1.17,4.24,0,1.17,1.17,1.17,3.07,0,4.24l-35.85,35.85c-.59.59-1.35.88-2.12.88Z"/>
      </g>
    </g>
  </g>
</svg>