<?xml version="1.0" encoding="UTF-8"?>
<svg id="Layer_2" data-name="Layer 2" xmlns="http://www.w3.org/2000/svg" viewBox="0 0 118.54 156">
  <defs>
    <style>
      .cls-1 {
        fill: #383838;
      }
    </style>
  </defs>
  <g id="STROKE_12_PX_EXPAND" data-name="STROKE 12 PX EXPAND">
    <g id="lightning">
      <path class="cls-1" d="m50.8,156c-.39,0-.79-.08-1.16-.24-1.3-.55-2.04-1.92-1.79-3.3l9.93-54.36H3c-1.12,0-2.15-.62-2.66-1.62-.52-.99-.44-2.19.21-3.11L65.23,1.27c.81-1.15,2.32-1.58,3.61-1.04,1.3.54,2.05,1.92,1.79,3.31l-10.11,55.24h55.01c1.12,0,2.15.63,2.67,1.62.51,1,.43,2.2-.22,3.11l-64.73,91.22c-.58.81-1.5,1.26-2.45,1.26ZM8.77,92.1h52.6c.89,0,1.73.4,2.3,1.08.57.68.81,1.58.65,2.46l-8.14,44.59,53.55-75.46h-52.81c-.89,0-1.73-.4-2.3-1.08-.57-.68-.81-1.59-.65-2.46l8.29-45.3L8.77,92.1Z"/>
    </g>
  </g>
</svg>