<?xml version="1.0" encoding="UTF-8"?>
<svg id="Layer_2" data-name="Layer 2" xmlns="http://www.w3.org/2000/svg" viewBox="0 0 195.45 156">
  <defs>
    <style>
      .cls-1 {
        fill: #383838;
      }
    </style>
  </defs>
  <g id="STROKE_12_PX_EXPAND" data-name="STROKE 12 PX EXPAND">
    <g id="snow_road" data-name="snow road">
      <g>
        <g>
          <g>
            <path class="cls-1" d="m40.72,37h-11.42c-1.86,0-3.57-.86-4.68-2.35-1.11-1.49-1.44-3.37-.9-5.16l1.81-6.01c.75-2.48,2.99-4.15,5.58-4.15h5.3c1.66,0,3,1.34,3,3s-1.34,3-3,3h-5.17l-1.71,5.66h11.19c1.66,0,3,1.34,3,3s-1.34,3-3,3Z"/>
            <path class="cls-1" d="m54.98,106h-15.04c-3.42,0-6.2-2.78-6.2-6.2v-10.88c0-1.66,1.34-3,3-3s3,1.34,3,3v10.88c0,.11.09.2.2.2h15.04c.11,0,.2-.09.2-.2v-10.88c0-1.66,1.34-3,3-3s3,1.34,3,3v10.88c0,3.42-2.78,6.2-6.2,6.2Z"/>
            <path class="cls-1" d="m156.34,91.92H39.11c-6.02,0-10.92-4.9-10.92-10.92v-21.35c0-7.81,2.26-15.4,6.53-21.94l19.21-29.43c3.38-5.18,9.09-8.27,15.28-8.27h57.04c6.19,0,11.9,3.09,15.28,8.27l19.21,29.43c4.27,6.54,6.53,14.13,6.53,21.94v21.35c0,6.02-4.9,10.92-10.92,10.92ZM69.21,6c-4.15,0-7.98,2.08-10.25,5.55l-19.21,29.43c-3.63,5.57-5.55,12.02-5.55,18.66v21.35c0,2.71,2.21,4.92,4.92,4.92h117.23c2.71,0,4.92-2.21,4.92-4.92v-21.35c0-6.64-1.92-13.1-5.55-18.66l-19.21-29.43c-2.27-3.48-6.1-5.55-10.25-5.55h-57.04Z"/>
            <path class="cls-1" d="m134.42,34.77H61.04c-1.89,0-3.62-1.03-4.51-2.69-.9-1.66-.82-3.67.22-5.25l7.84-12.01c.95-1.46,2.56-2.33,4.3-2.33h57.71c1.74,0,3.34.87,4.3,2.33l7.84,12.01c1.03,1.58,1.11,3.59.22,5.25-.9,1.66-2.63,2.69-4.51,2.69Zm-.73-4.66h0,0Zm-71.05-1.34h70.18l-6.7-10.27h-56.77l-6.7,10.27Z"/>
            <path class="cls-1" d="m166.16,37h-11.42c-1.66,0-3-1.34-3-3s1.34-3,3-3h11.19l-1.71-5.66h-5.17c-1.66,0-3-1.34-3-3s1.34-3,3-3h5.3c2.59,0,4.83,1.67,5.58,4.15l1.81,6.01c.54,1.78.21,3.66-.9,5.16-1.11,1.5-2.82,2.35-4.68,2.35Z"/>
            <path class="cls-1" d="m155.51,106h-15.04c-3.42,0-6.2-2.78-6.2-6.2v-10.88c0-1.66,1.34-3,3-3s3,1.34,3,3v10.88c0,.11.09.2.2.2h15.04c.11,0,.2-.09.2-.2v-10.88c0-1.66,1.34-3,3-3s3,1.34,3,3v10.88c0,3.42-2.78,6.2-6.2,6.2Z"/>
            <path class="cls-1" d="m136.41,91.92c-1.09,0-2.15-.6-2.67-1.64l-12.1-23.73c-1.68-3.3-5.03-5.35-8.73-5.35h-30.36c-3.7,0-7.05,2.05-8.73,5.35l-12.1,23.73c-.75,1.48-2.56,2.06-4.04,1.31-1.48-.75-2.06-2.56-1.31-4.04l12.1-23.73c2.71-5.32,8.11-8.62,14.08-8.62h30.36c5.97,0,11.37,3.3,14.08,8.62l12.1,23.73c.75,1.48.17,3.28-1.31,4.04-.44.22-.9.33-1.36.33Z"/>
          </g>
          <path class="cls-1" d="m74.43,79h-8.34c-1.66,0-3-1.34-3-3s1.34-3,3-3h8.34c1.66,0,3,1.34,3,3s-1.34,3-3,3Z"/>
          <path class="cls-1" d="m129.83,79h-43.45c-1.66,0-3-1.34-3-3s1.34-3,3-3h43.45c1.66,0,3,1.34,3,3s-1.34,3-3,3Z"/>
        </g>
        <path class="cls-1" d="m52.66,67.61c-6.74,0-12.23-5.49-12.23-12.23s5.49-12.23,12.23-12.23,12.23,5.49,12.23,12.23-5.49,12.23-12.23,12.23Zm0-18.46c-3.44,0-6.23,2.8-6.23,6.23s2.8,6.23,6.23,6.23,6.23-2.8,6.23-6.23-2.8-6.23-6.23-6.23Z"/>
        <path class="cls-1" d="m142.79,67.61c-6.74,0-12.23-5.49-12.23-12.23s5.49-12.23,12.23-12.23,12.23,5.49,12.23,12.23-5.49,12.23-12.23,12.23Zm0-18.46c-3.44,0-6.23,2.8-6.23,6.23s2.8,6.23,6.23,6.23,6.23-2.8,6.23-6.23-2.8-6.23-6.23-6.23Z"/>
      </g>
      <path class="cls-1" d="m3,156c-.34,0-.68-.06-1.02-.18-1.56-.56-2.37-2.28-1.8-3.84l21.04-58.34c.56-1.56,2.29-2.36,3.84-1.8,1.56.56,2.37,2.28,1.8,3.84l-21.04,58.34c-.44,1.22-1.59,1.98-2.82,1.98Z"/>
      <path class="cls-1" d="m192.45,156c-1.23,0-2.38-.76-2.82-1.98l-21.04-58.34c-.56-1.56.25-3.28,1.8-3.84,1.56-.56,3.28.25,3.84,1.8l21.04,58.34c.56,1.56-.25,3.28-1.8,3.84-.34.12-.68.18-1.02.18Z"/>
      <path class="cls-1" d="m97.73,155.99c-1.66,0-3-1.34-3-3v-4c0-1.66,1.34-3,3-3s3,1.34,3,3v4c0,1.66-1.34,3-3,3Zm0-16c-1.66,0-3-1.34-3-3v-4c0-1.66,1.34-3,3-3s3,1.34,3,3v4c0,1.66-1.34,3-3,3Zm0-16c-1.66,0-3-1.34-3-3v-4c0-1.66,1.34-3,3-3s3,1.34,3,3v4c0,1.66-1.34,3-3,3Zm0-16c-1.66,0-3-1.34-3-3v-4c0-1.66,1.34-3,3-3s3,1.34,3,3v4c0,1.66-1.34,3-3,3Z"/>
      <g>
        <g id="snowflake">
          <path class="cls-1" d="m42.88,128.49c-1.04,0-2.05-.54-2.6-1.5l-4.95-8.57c-.83-1.44-.34-3.27,1.1-4.1,1.44-.83,3.27-.34,4.1,1.1l4.95,8.57c.83,1.44.34,3.27-1.1,4.1-.47.27-.99.4-1.5.4Z"/>
          <path class="cls-1" d="m56.97,152.92c-1.04,0-2.05-.54-2.6-1.5l-4.95-8.6c-.83-1.44-.33-3.27,1.1-4.1,1.44-.83,3.27-.34,4.1,1.1l4.96,8.6c.83,1.44.33,3.27-1.1,4.1-.47.27-.99.4-1.5.4Z"/>
          <path class="cls-1" d="m38.31,136.41h-9.91c-1.66,0-3-1.34-3-3s1.34-3,3-3h9.9c1.66,0,3.01,1.34,3.01,3s-1.34,3-3,3Z"/>
          <path class="cls-1" d="m66.52,136.41h-9.93c-1.66,0-3-1.34-3-3s1.34-3,3-3h9.93c1.66,0,3,1.34,3,3s-1.34,3-3,3Z"/>
          <path class="cls-1" d="m52.02,128.5c-.51,0-1.02-.13-1.5-.4-1.43-.83-1.93-2.66-1.1-4.1l4.95-8.59c.83-1.44,2.66-1.92,4.1-1.1,1.43.83,1.93,2.66,1.1,4.1l-4.95,8.59c-.56.96-1.56,1.5-2.6,1.5Z"/>
          <path class="cls-1" d="m37.93,152.92c-.51,0-1.02-.13-1.49-.4-1.44-.83-1.93-2.66-1.1-4.1l4.95-8.59c.83-1.44,2.66-1.93,4.1-1.1,1.44.83,1.93,2.66,1.1,4.1l-4.95,8.59c-.56.96-1.56,1.5-2.6,1.5Z"/>
        </g>
        <g id="snowflake-2" data-name="snowflake">
          <path class="cls-1" d="m143.42,128.49c-1.04,0-2.05-.54-2.6-1.5l-4.95-8.57c-.83-1.44-.34-3.27,1.1-4.1,1.44-.83,3.27-.34,4.1,1.1l4.95,8.57c.83,1.44.34,3.27-1.1,4.1-.47.27-.99.4-1.5.4Z"/>
          <path class="cls-1" d="m157.51,152.92c-1.04,0-2.05-.54-2.6-1.5l-4.96-8.6c-.83-1.44-.33-3.27,1.1-4.1,1.44-.83,3.27-.34,4.1,1.1l4.96,8.6c.83,1.44.33,3.27-1.1,4.1-.47.27-.99.4-1.5.4Z"/>
          <path class="cls-1" d="m138.85,136.41h-9.91c-1.66,0-3-1.34-3-3s1.34-3,3-3h9.9c1.66,0,3,1.34,3,3s-1.34,3-2.99,3Z"/>
          <path class="cls-1" d="m167.05,136.41h-9.93c-1.66,0-3-1.34-3-3s1.34-3,3-3h9.93c1.66,0,3,1.34,3,3s-1.34,3-3,3Z"/>
          <path class="cls-1" d="m152.56,128.5c-.51,0-1.02-.13-1.5-.4-1.43-.83-1.93-2.66-1.1-4.1l4.95-8.59c.83-1.44,2.66-1.92,4.1-1.1,1.43.83,1.93,2.66,1.1,4.1l-4.95,8.59c-.56.96-1.56,1.5-2.6,1.5Z"/>
          <path class="cls-1" d="m138.47,152.92c-.51,0-1.02-.13-1.49-.4-1.44-.83-1.93-2.66-1.1-4.1l4.95-8.59c.83-1.44,2.66-1.93,4.1-1.1,1.44.83,1.93,2.66,1.1,4.1l-4.95,8.59c-.56.96-1.56,1.5-2.6,1.5Z"/>
        </g>
      </g>
    </g>
  </g>
</svg>