<?xml version="1.0" encoding="UTF-8"?>
<svg id="Layer_2" data-name="Layer 2" xmlns="http://www.w3.org/2000/svg" viewBox="0 0 156 156">
  <defs>
    <style>
      .cls-1 {
        fill: #383838;
      }
    </style>
  </defs>
  <g id="STROKE_12_PX_EXPAND" data-name="STROKE 12 PX EXPAND">
    <g id="sunny">
      <g>
        <path class="cls-1" d="m78,23.5c-1.66,0-3-1.34-3-3V3c0-1.66,1.34-3,3-3s3,1.34,3,3v17.5c0,1.66-1.34,3-3,3Z"/>
        <path class="cls-1" d="m78,156c-1.66,0-3-1.34-3-3v-17.5c0-1.66,1.34-3,3-3s3,1.34,3,3v17.5c0,1.66-1.34,3-3,3Z"/>
        <path class="cls-1" d="m49.25,31.2c-1.04,0-2.04-.54-2.6-1.5l-8.75-15.14c-.83-1.43-.34-3.27,1.1-4.1,1.43-.83,3.27-.34,4.1,1.1l8.75,15.15c.83,1.44.34,3.27-1.1,4.1-.47.27-.99.4-1.5.4Z"/>
        <path class="cls-1" d="m115.5,145.95c-1.04,0-2.04-.54-2.6-1.5l-8.75-15.14c-.83-1.44-.34-3.27,1.1-4.1,1.43-.83,3.27-.34,4.1,1.1l8.75,15.14c.83,1.44.34,3.27-1.1,4.1-.47.27-.99.4-1.5.4Z"/>
        <path class="cls-1" d="m28.19,52.25c-.51,0-1.03-.13-1.5-.4l-15.15-8.74c-1.43-.83-1.93-2.66-1.1-4.1.83-1.44,2.67-1.92,4.1-1.1l15.15,8.74c1.43.83,1.93,2.66,1.1,4.1-.56.96-1.56,1.5-2.6,1.5Z"/>
        <path class="cls-1" d="m142.95,118.5c-.51,0-1.03-.13-1.5-.4l-15.15-8.75c-1.43-.83-1.93-2.66-1.1-4.1.83-1.43,2.67-1.92,4.1-1.1l15.15,8.75c1.43.83,1.93,2.66,1.1,4.1-.56.96-1.56,1.5-2.6,1.5Z"/>
        <path class="cls-1" d="m20.5,81H3c-1.66,0-3-1.34-3-3s1.34-3,3-3h17.5c1.66,0,3,1.34,3,3s-1.34,3-3,3Z"/>
        <path class="cls-1" d="m153,81h-17.5c-1.66,0-3-1.34-3-3s1.34-3,3-3h17.5c1.66,0,3,1.34,3,3s-1.34,3-3,3Z"/>
        <path class="cls-1" d="m13.05,118.5c-1.04,0-2.04-.54-2.6-1.5-.83-1.44-.34-3.27,1.1-4.1l15.15-8.75c1.43-.83,3.27-.34,4.1,1.1.83,1.44.34,3.27-1.1,4.1l-15.15,8.75c-.47.27-.99.4-1.5.4Z"/>
        <path class="cls-1" d="m127.81,52.25c-1.04,0-2.04-.54-2.6-1.5-.83-1.43-.34-3.27,1.1-4.1l15.15-8.74c1.44-.83,3.27-.34,4.1,1.1.83,1.44.34,3.27-1.1,4.1l-15.15,8.74c-.47.27-.99.4-1.5.4Z"/>
        <path class="cls-1" d="m40.5,145.95c-.51,0-1.03-.13-1.5-.4-1.43-.83-1.93-2.66-1.1-4.1l8.75-15.14c.83-1.44,2.67-1.92,4.1-1.1,1.43.83,1.93,2.66,1.1,4.1l-8.75,15.14c-.56.96-1.56,1.5-2.6,1.5Z"/>
        <path class="cls-1" d="m106.75,31.2c-.51,0-1.03-.13-1.5-.4-1.43-.83-1.93-2.66-1.1-4.1l8.75-15.15c.83-1.44,2.67-1.92,4.1-1.1,1.43.83,1.93,2.66,1.1,4.1l-8.75,15.14c-.56.96-1.56,1.5-2.6,1.5Z"/>
      </g>
      <path class="cls-1" d="m78,123.5c-25.09,0-45.5-20.41-45.5-45.5s20.41-45.5,45.5-45.5,45.5,20.41,45.5,45.5-20.41,45.5-45.5,45.5Zm0-85c-21.78,0-39.5,17.72-39.5,39.5s17.72,39.5,39.5,39.5,39.5-17.72,39.5-39.5-17.72-39.5-39.5-39.5Z"/>
    </g>
  </g>
</svg>