<?xml version="1.0" encoding="UTF-8"?>
<svg id="Layer_2" data-name="Layer 2" xmlns="http://www.w3.org/2000/svg" viewBox="0 0 71.97 156">
  <defs>
    <style>
      .cls-1 {
        fill: #383838;
      }
    </style>
  </defs>
  <g id="STROKE_12_PX_EXPAND" data-name="STROKE 12 PX EXPAND">
    <g id="temperature">
      <path class="cls-1" d="m56.97,30c-8.27,0-15-6.73-15-15S48.69,0,56.97,0s15,6.73,15,15-6.73,15-15,15Zm0-24c-4.96,0-9,4.04-9,9s4.04,9,9,9,9-4.04,9-9-4.04-9-9-9Z"/>
      <g>
        <path class="cls-1" d="m36.58,98.5H3c-1.66,0-3-1.34-3-3s1.34-3,3-3h33.58c1.66,0,3,1.34,3,3s-1.34,3-3,3Z"/>
        <path class="cls-1" d="m39.03,156c-12.26,0-22.24-9.98-22.24-22.24V38c0-1.66,1.34-3,3-3s3,1.34,3,3v95.76c0,8.96,7.29,16.24,16.24,16.24s16.24-7.29,16.24-16.24v-5.35c0-1.66,1.34-3,3-3s3,1.34,3,3v5.35c0,12.26-9.98,22.24-22.24,22.24Z"/>
      </g>
    </g>
  </g>
</svg>