<?xml version="1.0" encoding="UTF-8"?>
<svg id="Layer_2" data-name="Layer 2" xmlns="http://www.w3.org/2000/svg" viewBox="0 0 136.26 156">
  <defs>
    <style>
      .cls-1 {
        fill: #383838;
      }
    </style>
  </defs>
  <g id="STROKE_12_PX_EXPAND" data-name="STROKE 12 PX EXPAND">
    <g id="thermometer">
      <g id="thermometer-2" data-name="thermometer">
        <g>
          <path class="cls-1" d="m133.26,27.75h-6.5c-1.66,0-3-1.34-3-3s1.34-3,3-3h6.5c1.66,0,3,1.34,3,3s-1.34,3-3,3Z"/>
          <path class="cls-1" d="m133.26,42.75h-6.5c-1.66,0-3-1.34-3-3s1.34-3,3-3h6.5c1.66,0,3,1.34,3,3s-1.34,3-3,3Z"/>
          <path class="cls-1" d="m133.26,57.75h-6.5c-1.66,0-3-1.34-3-3s1.34-3,3-3h6.5c1.66,0,3,1.34,3,3s-1.34,3-3,3Z"/>
          <path class="cls-1" d="m133.26,72.75h-6.5c-1.66,0-3-1.34-3-3s1.34-3,3-3h6.5c1.66,0,3,1.34,3,3s-1.34,3-3,3Z"/>
          <path class="cls-1" d="m133.26,87.75h-6.5c-1.66,0-3-1.34-3-3s1.34-3,3-3h6.5c1.66,0,3,1.34,3,3s-1.34,3-3,3Z"/>
        </g>
        <path class="cls-1" d="m96.82,139.31c-10.75,0-19.5-8.75-19.5-19.5s8.75-19.5,19.5-19.5,19.5,8.75,19.5,19.5-8.75,19.5-19.5,19.5Zm0-33c-7.44,0-13.5,6.06-13.5,13.5s6.06,13.5,13.5,13.5,13.5-6.06,13.5-13.5-6.06-13.5-13.5-13.5Z"/>
        <path class="cls-1" d="m96.84,156c-.58,0-1.16-.01-1.74-.04-18.34-.85-33.46-15.88-34.42-34.21-.69-13.13,5.65-25.4,16.64-32.43V19.5c0-10.75,8.75-19.5,19.5-19.5s19.5,8.75,19.5,19.5v69.82c10.34,6.63,16.69,18.15,16.69,30.49,0,9.99-3.98,19.28-11.2,26.18-6.8,6.49-15.61,10.01-24.97,10.01Zm-.02-150c-7.44,0-13.5,6.06-13.5,13.5v71.51c0,1.07-.58,2.07-1.51,2.6-9.94,5.71-15.74,16.37-15.15,27.82.8,15.29,13.41,27.82,28.71,28.54,8.36.39,16.26-2.57,22.29-8.32,6.03-5.75,9.35-13.51,9.35-21.84,0-10.78-5.82-20.82-15.19-26.2-.93-.53-1.51-1.53-1.51-2.6V19.5c0-7.44-6.06-13.5-13.5-13.5Z"/>
        <path class="cls-1" d="m96.82,106.31c-1.66,0-3-1.34-3-3V19.29c0-1.66,1.34-3,3-3s3,1.34,3,3v84.02c0,1.66-1.34,3-3,3Z"/>
      </g>
      <g id="sun">
        <g>
          <path class="cls-1" d="m34.25,15.09c-1.66,0-3-1.34-3-3V3c0-1.66,1.34-3,3-3s3,1.34,3,3v9.09c0,1.66-1.34,3-3,3Z"/>
          <path class="cls-1" d="m34.25,68.5c-1.66,0-3-1.34-3-3v-9.09c0-1.66,1.34-3,3-3s3,1.34,3,3v9.09c0,1.66-1.34,3-3,3Z"/>
          <path class="cls-1" d="m18.57,21.57c-.77,0-1.54-.29-2.12-.88l-6.42-6.42c-1.17-1.17-1.17-3.07,0-4.24,1.17-1.17,3.07-1.17,4.24,0l6.42,6.42c1.17,1.17,1.17,3.07,0,4.24-.59.59-1.35.88-2.12.88Z"/>
          <path class="cls-1" d="m56.35,59.35c-.77,0-1.54-.29-2.12-.88l-6.43-6.43c-1.17-1.17-1.17-3.07,0-4.24,1.17-1.17,3.07-1.17,4.24,0l6.43,6.43c1.17,1.17,1.17,3.07,0,4.24-.59.59-1.35.88-2.12.88Z"/>
          <path class="cls-1" d="m12.08,37.25H3c-1.66,0-3-1.34-3-3s1.34-3,3-3h9.08c1.66,0,3,1.34,3,3s-1.34,3-3,3Z"/>
          <path class="cls-1" d="m65.5,37.25h-9.09c-1.66,0-3-1.34-3-3s1.34-3,3-3h9.09c1.66,0,3,1.34,3,3s-1.34,3-3,3Z"/>
          <path class="cls-1" d="m12.15,59.35c-.77,0-1.54-.29-2.12-.88-1.17-1.17-1.17-3.07,0-4.24l6.43-6.43c1.17-1.17,3.07-1.17,4.24,0,1.17,1.17,1.17,3.07,0,4.24l-6.43,6.43c-.59.59-1.35.88-2.12.88Z"/>
          <path class="cls-1" d="m49.92,21.58c-.77,0-1.54-.29-2.12-.88-1.17-1.17-1.17-3.07,0-4.24l6.43-6.43c1.17-1.17,3.07-1.17,4.24,0,1.17,1.17,1.17,3.07,0,4.24l-6.43,6.43c-.59.59-1.35.88-2.12.88Z"/>
        </g>
        <path class="cls-1" d="m34.25,49.4c-8.35,0-15.15-6.8-15.15-15.15s6.8-15.15,15.15-15.15,15.15,6.8,15.15,15.15-6.8,15.15-15.15,15.15Zm0-24.3c-5.05,0-9.15,4.1-9.15,9.15s4.1,9.15,9.15,9.15,9.15-4.11,9.15-9.15-4.11-9.15-9.15-9.15Z"/>
      </g>
    </g>
  </g>
</svg>