<?xml version="1.0" encoding="UTF-8"?>
<svg id="Layer_2" data-name="Layer 2" xmlns="http://www.w3.org/2000/svg" viewBox="0 0 123.31 146">
  <defs>
    <style>
      .cls-1 {
        fill: #383838;
      }
    </style>
  </defs>
  <g id="STROKE_12_PX_EXPAND" data-name="STROKE 12 PX EXPAND">
    <g id="wind_direction" data-name="wind direction">
      <path class="cls-1" d="m44.64,146c-.33,0-.66-.06-.99-.17-.91-.32-1.61-1.05-1.89-1.98L.12,3.85C-.24,2.62.22,1.28,1.28.54c1.06-.74,2.47-.72,3.51.05l117.31,87.01c.77.57,1.23,1.49,1.21,2.45-.01.96-.49,1.86-1.28,2.42l-26.08,18.26c-1.36.95-3.23.62-4.18-.74-.95-1.36-.62-3.23.74-4.18l22.67-15.88L8.44,10.77l37.89,127.38,31.97-22.38-27.04-38.62c-.95-1.36-.62-3.23.74-4.18,1.36-.95,3.23-.62,4.18.74l28.77,41.08c.46.65.63,1.46.5,2.24-.14.78-.58,1.48-1.23,1.94l-37.84,26.49c-.51.36-1.11.54-1.72.54Z"/>
    </g>
  </g>
</svg>